%TF.GenerationSoftware,KiCad,Pcbnew,8.0.1-8.0.1-1~ubuntu22.04.1*%
%TF.CreationDate,2024-04-28T16:40:35+01:00*%
%TF.ProjectId,tps54202_inverting_breakout,74707335-3432-4303-925f-696e76657274,A*%
%TF.SameCoordinates,Original*%
%TF.FileFunction,Legend,Bot*%
%TF.FilePolarity,Positive*%
%FSLAX46Y46*%
G04 Gerber Fmt 4.6, Leading zero omitted, Abs format (unit mm)*
G04 Created by KiCad (PCBNEW 8.0.1-8.0.1-1~ubuntu22.04.1) date 2024-04-28 16:40:35*
%MOMM*%
%LPD*%
G01*
G04 APERTURE LIST*
%ADD10C,0.200000*%
%ADD11C,0.120000*%
G04 APERTURE END LIST*
D10*
X201245237Y-96482650D02*
X201245237Y-95182650D01*
X200626189Y-95615984D02*
X200626189Y-96482650D01*
X200626189Y-95739793D02*
X200564284Y-95677888D01*
X200564284Y-95677888D02*
X200440474Y-95615984D01*
X200440474Y-95615984D02*
X200254760Y-95615984D01*
X200254760Y-95615984D02*
X200130951Y-95677888D01*
X200130951Y-95677888D02*
X200069046Y-95801698D01*
X200069046Y-95801698D02*
X200069046Y-96482650D01*
X199573808Y-95615984D02*
X199264284Y-96482650D01*
X199264284Y-96482650D02*
X198954761Y-95615984D01*
X197964285Y-96420746D02*
X198088094Y-96482650D01*
X198088094Y-96482650D02*
X198335713Y-96482650D01*
X198335713Y-96482650D02*
X198459523Y-96420746D01*
X198459523Y-96420746D02*
X198521427Y-96296936D01*
X198521427Y-96296936D02*
X198521427Y-95801698D01*
X198521427Y-95801698D02*
X198459523Y-95677888D01*
X198459523Y-95677888D02*
X198335713Y-95615984D01*
X198335713Y-95615984D02*
X198088094Y-95615984D01*
X198088094Y-95615984D02*
X197964285Y-95677888D01*
X197964285Y-95677888D02*
X197902380Y-95801698D01*
X197902380Y-95801698D02*
X197902380Y-95925507D01*
X197902380Y-95925507D02*
X198521427Y-96049317D01*
X197345237Y-96482650D02*
X197345237Y-95615984D01*
X197345237Y-95863603D02*
X197283332Y-95739793D01*
X197283332Y-95739793D02*
X197221427Y-95677888D01*
X197221427Y-95677888D02*
X197097618Y-95615984D01*
X197097618Y-95615984D02*
X196973808Y-95615984D01*
X196726189Y-95615984D02*
X196230951Y-95615984D01*
X196540475Y-95182650D02*
X196540475Y-96296936D01*
X196540475Y-96296936D02*
X196478570Y-96420746D01*
X196478570Y-96420746D02*
X196354760Y-96482650D01*
X196354760Y-96482650D02*
X196230951Y-96482650D01*
X195797618Y-96482650D02*
X195797618Y-95615984D01*
X195797618Y-95182650D02*
X195859522Y-95244555D01*
X195859522Y-95244555D02*
X195797618Y-95306460D01*
X195797618Y-95306460D02*
X195735713Y-95244555D01*
X195735713Y-95244555D02*
X195797618Y-95182650D01*
X195797618Y-95182650D02*
X195797618Y-95306460D01*
X195178570Y-95615984D02*
X195178570Y-96482650D01*
X195178570Y-95739793D02*
X195116665Y-95677888D01*
X195116665Y-95677888D02*
X194992855Y-95615984D01*
X194992855Y-95615984D02*
X194807141Y-95615984D01*
X194807141Y-95615984D02*
X194683332Y-95677888D01*
X194683332Y-95677888D02*
X194621427Y-95801698D01*
X194621427Y-95801698D02*
X194621427Y-96482650D01*
X193445237Y-95615984D02*
X193445237Y-96668365D01*
X193445237Y-96668365D02*
X193507142Y-96792174D01*
X193507142Y-96792174D02*
X193569046Y-96854079D01*
X193569046Y-96854079D02*
X193692856Y-96915984D01*
X193692856Y-96915984D02*
X193878570Y-96915984D01*
X193878570Y-96915984D02*
X194002380Y-96854079D01*
X193445237Y-96420746D02*
X193569046Y-96482650D01*
X193569046Y-96482650D02*
X193816665Y-96482650D01*
X193816665Y-96482650D02*
X193940475Y-96420746D01*
X193940475Y-96420746D02*
X194002380Y-96358841D01*
X194002380Y-96358841D02*
X194064284Y-96235031D01*
X194064284Y-96235031D02*
X194064284Y-95863603D01*
X194064284Y-95863603D02*
X194002380Y-95739793D01*
X194002380Y-95739793D02*
X193940475Y-95677888D01*
X193940475Y-95677888D02*
X193816665Y-95615984D01*
X193816665Y-95615984D02*
X193569046Y-95615984D01*
X193569046Y-95615984D02*
X193445237Y-95677888D01*
X201647617Y-97894625D02*
X201461903Y-97956530D01*
X201461903Y-97956530D02*
X201399998Y-98018434D01*
X201399998Y-98018434D02*
X201338094Y-98142244D01*
X201338094Y-98142244D02*
X201338094Y-98327958D01*
X201338094Y-98327958D02*
X201399998Y-98451768D01*
X201399998Y-98451768D02*
X201461903Y-98513673D01*
X201461903Y-98513673D02*
X201585713Y-98575577D01*
X201585713Y-98575577D02*
X202080951Y-98575577D01*
X202080951Y-98575577D02*
X202080951Y-97275577D01*
X202080951Y-97275577D02*
X201647617Y-97275577D01*
X201647617Y-97275577D02*
X201523808Y-97337482D01*
X201523808Y-97337482D02*
X201461903Y-97399387D01*
X201461903Y-97399387D02*
X201399998Y-97523196D01*
X201399998Y-97523196D02*
X201399998Y-97647006D01*
X201399998Y-97647006D02*
X201461903Y-97770815D01*
X201461903Y-97770815D02*
X201523808Y-97832720D01*
X201523808Y-97832720D02*
X201647617Y-97894625D01*
X201647617Y-97894625D02*
X202080951Y-97894625D01*
X200223808Y-97708911D02*
X200223808Y-98575577D01*
X200780951Y-97708911D02*
X200780951Y-98389863D01*
X200780951Y-98389863D02*
X200719046Y-98513673D01*
X200719046Y-98513673D02*
X200595236Y-98575577D01*
X200595236Y-98575577D02*
X200409522Y-98575577D01*
X200409522Y-98575577D02*
X200285713Y-98513673D01*
X200285713Y-98513673D02*
X200223808Y-98451768D01*
X199047618Y-98513673D02*
X199171427Y-98575577D01*
X199171427Y-98575577D02*
X199419046Y-98575577D01*
X199419046Y-98575577D02*
X199542856Y-98513673D01*
X199542856Y-98513673D02*
X199604761Y-98451768D01*
X199604761Y-98451768D02*
X199666665Y-98327958D01*
X199666665Y-98327958D02*
X199666665Y-97956530D01*
X199666665Y-97956530D02*
X199604761Y-97832720D01*
X199604761Y-97832720D02*
X199542856Y-97770815D01*
X199542856Y-97770815D02*
X199419046Y-97708911D01*
X199419046Y-97708911D02*
X199171427Y-97708911D01*
X199171427Y-97708911D02*
X199047618Y-97770815D01*
X198490475Y-98575577D02*
X198490475Y-97275577D01*
X198366665Y-98080339D02*
X197995237Y-98575577D01*
X197995237Y-97708911D02*
X198490475Y-98204149D01*
X196014284Y-97894625D02*
X195828570Y-97956530D01*
X195828570Y-97956530D02*
X195766665Y-98018434D01*
X195766665Y-98018434D02*
X195704761Y-98142244D01*
X195704761Y-98142244D02*
X195704761Y-98327958D01*
X195704761Y-98327958D02*
X195766665Y-98451768D01*
X195766665Y-98451768D02*
X195828570Y-98513673D01*
X195828570Y-98513673D02*
X195952380Y-98575577D01*
X195952380Y-98575577D02*
X196447618Y-98575577D01*
X196447618Y-98575577D02*
X196447618Y-97275577D01*
X196447618Y-97275577D02*
X196014284Y-97275577D01*
X196014284Y-97275577D02*
X195890475Y-97337482D01*
X195890475Y-97337482D02*
X195828570Y-97399387D01*
X195828570Y-97399387D02*
X195766665Y-97523196D01*
X195766665Y-97523196D02*
X195766665Y-97647006D01*
X195766665Y-97647006D02*
X195828570Y-97770815D01*
X195828570Y-97770815D02*
X195890475Y-97832720D01*
X195890475Y-97832720D02*
X196014284Y-97894625D01*
X196014284Y-97894625D02*
X196447618Y-97894625D01*
X194961903Y-98575577D02*
X195085713Y-98513673D01*
X195085713Y-98513673D02*
X195147618Y-98451768D01*
X195147618Y-98451768D02*
X195209522Y-98327958D01*
X195209522Y-98327958D02*
X195209522Y-97956530D01*
X195209522Y-97956530D02*
X195147618Y-97832720D01*
X195147618Y-97832720D02*
X195085713Y-97770815D01*
X195085713Y-97770815D02*
X194961903Y-97708911D01*
X194961903Y-97708911D02*
X194776189Y-97708911D01*
X194776189Y-97708911D02*
X194652380Y-97770815D01*
X194652380Y-97770815D02*
X194590475Y-97832720D01*
X194590475Y-97832720D02*
X194528570Y-97956530D01*
X194528570Y-97956530D02*
X194528570Y-98327958D01*
X194528570Y-98327958D02*
X194590475Y-98451768D01*
X194590475Y-98451768D02*
X194652380Y-98513673D01*
X194652380Y-98513673D02*
X194776189Y-98575577D01*
X194776189Y-98575577D02*
X194961903Y-98575577D01*
X193785713Y-98575577D02*
X193909523Y-98513673D01*
X193909523Y-98513673D02*
X193971428Y-98451768D01*
X193971428Y-98451768D02*
X194033332Y-98327958D01*
X194033332Y-98327958D02*
X194033332Y-97956530D01*
X194033332Y-97956530D02*
X193971428Y-97832720D01*
X193971428Y-97832720D02*
X193909523Y-97770815D01*
X193909523Y-97770815D02*
X193785713Y-97708911D01*
X193785713Y-97708911D02*
X193599999Y-97708911D01*
X193599999Y-97708911D02*
X193476190Y-97770815D01*
X193476190Y-97770815D02*
X193414285Y-97832720D01*
X193414285Y-97832720D02*
X193352380Y-97956530D01*
X193352380Y-97956530D02*
X193352380Y-98327958D01*
X193352380Y-98327958D02*
X193414285Y-98451768D01*
X193414285Y-98451768D02*
X193476190Y-98513673D01*
X193476190Y-98513673D02*
X193599999Y-98575577D01*
X193599999Y-98575577D02*
X193785713Y-98575577D01*
X192857142Y-98513673D02*
X192733333Y-98575577D01*
X192733333Y-98575577D02*
X192485714Y-98575577D01*
X192485714Y-98575577D02*
X192361904Y-98513673D01*
X192361904Y-98513673D02*
X192300000Y-98389863D01*
X192300000Y-98389863D02*
X192300000Y-98327958D01*
X192300000Y-98327958D02*
X192361904Y-98204149D01*
X192361904Y-98204149D02*
X192485714Y-98142244D01*
X192485714Y-98142244D02*
X192671428Y-98142244D01*
X192671428Y-98142244D02*
X192795238Y-98080339D01*
X192795238Y-98080339D02*
X192857142Y-97956530D01*
X192857142Y-97956530D02*
X192857142Y-97894625D01*
X192857142Y-97894625D02*
X192795238Y-97770815D01*
X192795238Y-97770815D02*
X192671428Y-97708911D01*
X192671428Y-97708911D02*
X192485714Y-97708911D01*
X192485714Y-97708911D02*
X192361904Y-97770815D01*
X191928571Y-97708911D02*
X191433333Y-97708911D01*
X191742857Y-97275577D02*
X191742857Y-98389863D01*
X191742857Y-98389863D02*
X191680952Y-98513673D01*
X191680952Y-98513673D02*
X191557142Y-98575577D01*
X191557142Y-98575577D02*
X191433333Y-98575577D01*
X203592326Y-100873275D02*
X203592326Y-99873275D01*
X203592326Y-99873275D02*
X203258993Y-100587560D01*
X203258993Y-100587560D02*
X202925660Y-99873275D01*
X202925660Y-99873275D02*
X202925660Y-100873275D01*
X202020898Y-100873275D02*
X202020898Y-100349465D01*
X202020898Y-100349465D02*
X202068517Y-100254227D01*
X202068517Y-100254227D02*
X202163755Y-100206608D01*
X202163755Y-100206608D02*
X202354231Y-100206608D01*
X202354231Y-100206608D02*
X202449469Y-100254227D01*
X202020898Y-100825656D02*
X202116136Y-100873275D01*
X202116136Y-100873275D02*
X202354231Y-100873275D01*
X202354231Y-100873275D02*
X202449469Y-100825656D01*
X202449469Y-100825656D02*
X202497088Y-100730417D01*
X202497088Y-100730417D02*
X202497088Y-100635179D01*
X202497088Y-100635179D02*
X202449469Y-100539941D01*
X202449469Y-100539941D02*
X202354231Y-100492322D01*
X202354231Y-100492322D02*
X202116136Y-100492322D01*
X202116136Y-100492322D02*
X202020898Y-100444703D01*
X201639945Y-100873275D02*
X201116136Y-100206608D01*
X201639945Y-100206608D02*
X201116136Y-100873275D01*
X200116135Y-99873275D02*
X199782802Y-100873275D01*
X199782802Y-100873275D02*
X199449469Y-99873275D01*
X199116135Y-100873275D02*
X199116135Y-100206608D01*
X199116135Y-99873275D02*
X199163754Y-99920894D01*
X199163754Y-99920894D02*
X199116135Y-99968513D01*
X199116135Y-99968513D02*
X199068516Y-99920894D01*
X199068516Y-99920894D02*
X199116135Y-99873275D01*
X199116135Y-99873275D02*
X199116135Y-99968513D01*
X198639945Y-100206608D02*
X198639945Y-100873275D01*
X198639945Y-100301846D02*
X198592326Y-100254227D01*
X198592326Y-100254227D02*
X198497088Y-100206608D01*
X198497088Y-100206608D02*
X198354231Y-100206608D01*
X198354231Y-100206608D02*
X198258993Y-100254227D01*
X198258993Y-100254227D02*
X198211374Y-100349465D01*
X198211374Y-100349465D02*
X198211374Y-100873275D01*
X196830421Y-100301846D02*
X196925659Y-100254227D01*
X196925659Y-100254227D02*
X196973278Y-100206608D01*
X196973278Y-100206608D02*
X197020897Y-100111370D01*
X197020897Y-100111370D02*
X197020897Y-100063751D01*
X197020897Y-100063751D02*
X196973278Y-99968513D01*
X196973278Y-99968513D02*
X196925659Y-99920894D01*
X196925659Y-99920894D02*
X196830421Y-99873275D01*
X196830421Y-99873275D02*
X196639945Y-99873275D01*
X196639945Y-99873275D02*
X196544707Y-99920894D01*
X196544707Y-99920894D02*
X196497088Y-99968513D01*
X196497088Y-99968513D02*
X196449469Y-100063751D01*
X196449469Y-100063751D02*
X196449469Y-100111370D01*
X196449469Y-100111370D02*
X196497088Y-100206608D01*
X196497088Y-100206608D02*
X196544707Y-100254227D01*
X196544707Y-100254227D02*
X196639945Y-100301846D01*
X196639945Y-100301846D02*
X196830421Y-100301846D01*
X196830421Y-100301846D02*
X196925659Y-100349465D01*
X196925659Y-100349465D02*
X196973278Y-100397084D01*
X196973278Y-100397084D02*
X197020897Y-100492322D01*
X197020897Y-100492322D02*
X197020897Y-100682798D01*
X197020897Y-100682798D02*
X196973278Y-100778036D01*
X196973278Y-100778036D02*
X196925659Y-100825656D01*
X196925659Y-100825656D02*
X196830421Y-100873275D01*
X196830421Y-100873275D02*
X196639945Y-100873275D01*
X196639945Y-100873275D02*
X196544707Y-100825656D01*
X196544707Y-100825656D02*
X196497088Y-100778036D01*
X196497088Y-100778036D02*
X196449469Y-100682798D01*
X196449469Y-100682798D02*
X196449469Y-100492322D01*
X196449469Y-100492322D02*
X196497088Y-100397084D01*
X196497088Y-100397084D02*
X196544707Y-100349465D01*
X196544707Y-100349465D02*
X196639945Y-100301846D01*
X196020897Y-100492322D02*
X195258993Y-100492322D01*
X194258993Y-100873275D02*
X194830421Y-100873275D01*
X194544707Y-100873275D02*
X194544707Y-99873275D01*
X194544707Y-99873275D02*
X194639945Y-100016132D01*
X194639945Y-100016132D02*
X194735183Y-100111370D01*
X194735183Y-100111370D02*
X194830421Y-100158989D01*
X193401850Y-99873275D02*
X193592326Y-99873275D01*
X193592326Y-99873275D02*
X193687564Y-99920894D01*
X193687564Y-99920894D02*
X193735183Y-99968513D01*
X193735183Y-99968513D02*
X193830421Y-100111370D01*
X193830421Y-100111370D02*
X193878040Y-100301846D01*
X193878040Y-100301846D02*
X193878040Y-100682798D01*
X193878040Y-100682798D02*
X193830421Y-100778036D01*
X193830421Y-100778036D02*
X193782802Y-100825656D01*
X193782802Y-100825656D02*
X193687564Y-100873275D01*
X193687564Y-100873275D02*
X193497088Y-100873275D01*
X193497088Y-100873275D02*
X193401850Y-100825656D01*
X193401850Y-100825656D02*
X193354231Y-100778036D01*
X193354231Y-100778036D02*
X193306612Y-100682798D01*
X193306612Y-100682798D02*
X193306612Y-100444703D01*
X193306612Y-100444703D02*
X193354231Y-100349465D01*
X193354231Y-100349465D02*
X193401850Y-100301846D01*
X193401850Y-100301846D02*
X193497088Y-100254227D01*
X193497088Y-100254227D02*
X193687564Y-100254227D01*
X193687564Y-100254227D02*
X193782802Y-100301846D01*
X193782802Y-100301846D02*
X193830421Y-100349465D01*
X193830421Y-100349465D02*
X193878040Y-100444703D01*
X193020897Y-99873275D02*
X192687564Y-100873275D01*
X192687564Y-100873275D02*
X192354231Y-99873275D01*
X203020898Y-102483219D02*
X203354231Y-102007028D01*
X203592326Y-102483219D02*
X203592326Y-101483219D01*
X203592326Y-101483219D02*
X203211374Y-101483219D01*
X203211374Y-101483219D02*
X203116136Y-101530838D01*
X203116136Y-101530838D02*
X203068517Y-101578457D01*
X203068517Y-101578457D02*
X203020898Y-101673695D01*
X203020898Y-101673695D02*
X203020898Y-101816552D01*
X203020898Y-101816552D02*
X203068517Y-101911790D01*
X203068517Y-101911790D02*
X203116136Y-101959409D01*
X203116136Y-101959409D02*
X203211374Y-102007028D01*
X203211374Y-102007028D02*
X203592326Y-102007028D01*
X202211374Y-102435600D02*
X202306612Y-102483219D01*
X202306612Y-102483219D02*
X202497088Y-102483219D01*
X202497088Y-102483219D02*
X202592326Y-102435600D01*
X202592326Y-102435600D02*
X202639945Y-102340361D01*
X202639945Y-102340361D02*
X202639945Y-101959409D01*
X202639945Y-101959409D02*
X202592326Y-101864171D01*
X202592326Y-101864171D02*
X202497088Y-101816552D01*
X202497088Y-101816552D02*
X202306612Y-101816552D01*
X202306612Y-101816552D02*
X202211374Y-101864171D01*
X202211374Y-101864171D02*
X202163755Y-101959409D01*
X202163755Y-101959409D02*
X202163755Y-102054647D01*
X202163755Y-102054647D02*
X202639945Y-102149885D01*
X201830421Y-101816552D02*
X201592326Y-102483219D01*
X201592326Y-102483219D02*
X201354231Y-101816552D01*
X201020897Y-102197504D02*
X200544707Y-102197504D01*
X201116135Y-102483219D02*
X200782802Y-101483219D01*
X200782802Y-101483219D02*
X200449469Y-102483219D01*
X199401849Y-101578457D02*
X199354230Y-101530838D01*
X199354230Y-101530838D02*
X199258992Y-101483219D01*
X199258992Y-101483219D02*
X199020897Y-101483219D01*
X199020897Y-101483219D02*
X198925659Y-101530838D01*
X198925659Y-101530838D02*
X198878040Y-101578457D01*
X198878040Y-101578457D02*
X198830421Y-101673695D01*
X198830421Y-101673695D02*
X198830421Y-101768933D01*
X198830421Y-101768933D02*
X198878040Y-101911790D01*
X198878040Y-101911790D02*
X199449468Y-102483219D01*
X199449468Y-102483219D02*
X198830421Y-102483219D01*
X198211373Y-101483219D02*
X198116135Y-101483219D01*
X198116135Y-101483219D02*
X198020897Y-101530838D01*
X198020897Y-101530838D02*
X197973278Y-101578457D01*
X197973278Y-101578457D02*
X197925659Y-101673695D01*
X197925659Y-101673695D02*
X197878040Y-101864171D01*
X197878040Y-101864171D02*
X197878040Y-102102266D01*
X197878040Y-102102266D02*
X197925659Y-102292742D01*
X197925659Y-102292742D02*
X197973278Y-102387980D01*
X197973278Y-102387980D02*
X198020897Y-102435600D01*
X198020897Y-102435600D02*
X198116135Y-102483219D01*
X198116135Y-102483219D02*
X198211373Y-102483219D01*
X198211373Y-102483219D02*
X198306611Y-102435600D01*
X198306611Y-102435600D02*
X198354230Y-102387980D01*
X198354230Y-102387980D02*
X198401849Y-102292742D01*
X198401849Y-102292742D02*
X198449468Y-102102266D01*
X198449468Y-102102266D02*
X198449468Y-101864171D01*
X198449468Y-101864171D02*
X198401849Y-101673695D01*
X198401849Y-101673695D02*
X198354230Y-101578457D01*
X198354230Y-101578457D02*
X198306611Y-101530838D01*
X198306611Y-101530838D02*
X198211373Y-101483219D01*
X197497087Y-101578457D02*
X197449468Y-101530838D01*
X197449468Y-101530838D02*
X197354230Y-101483219D01*
X197354230Y-101483219D02*
X197116135Y-101483219D01*
X197116135Y-101483219D02*
X197020897Y-101530838D01*
X197020897Y-101530838D02*
X196973278Y-101578457D01*
X196973278Y-101578457D02*
X196925659Y-101673695D01*
X196925659Y-101673695D02*
X196925659Y-101768933D01*
X196925659Y-101768933D02*
X196973278Y-101911790D01*
X196973278Y-101911790D02*
X197544706Y-102483219D01*
X197544706Y-102483219D02*
X196925659Y-102483219D01*
X196068516Y-101816552D02*
X196068516Y-102483219D01*
X196306611Y-101435600D02*
X196544706Y-102149885D01*
X196544706Y-102149885D02*
X195925659Y-102149885D01*
X195544706Y-102102266D02*
X194782802Y-102102266D01*
X194116135Y-101483219D02*
X194020897Y-101483219D01*
X194020897Y-101483219D02*
X193925659Y-101530838D01*
X193925659Y-101530838D02*
X193878040Y-101578457D01*
X193878040Y-101578457D02*
X193830421Y-101673695D01*
X193830421Y-101673695D02*
X193782802Y-101864171D01*
X193782802Y-101864171D02*
X193782802Y-102102266D01*
X193782802Y-102102266D02*
X193830421Y-102292742D01*
X193830421Y-102292742D02*
X193878040Y-102387980D01*
X193878040Y-102387980D02*
X193925659Y-102435600D01*
X193925659Y-102435600D02*
X194020897Y-102483219D01*
X194020897Y-102483219D02*
X194116135Y-102483219D01*
X194116135Y-102483219D02*
X194211373Y-102435600D01*
X194211373Y-102435600D02*
X194258992Y-102387980D01*
X194258992Y-102387980D02*
X194306611Y-102292742D01*
X194306611Y-102292742D02*
X194354230Y-102102266D01*
X194354230Y-102102266D02*
X194354230Y-101864171D01*
X194354230Y-101864171D02*
X194306611Y-101673695D01*
X194306611Y-101673695D02*
X194258992Y-101578457D01*
X194258992Y-101578457D02*
X194211373Y-101530838D01*
X194211373Y-101530838D02*
X194116135Y-101483219D01*
X192925659Y-101816552D02*
X192925659Y-102483219D01*
X193163754Y-101435600D02*
X193401849Y-102149885D01*
X193401849Y-102149885D02*
X192782802Y-102149885D01*
X192401849Y-102102266D02*
X191639945Y-102102266D01*
X190973278Y-101483219D02*
X190878040Y-101483219D01*
X190878040Y-101483219D02*
X190782802Y-101530838D01*
X190782802Y-101530838D02*
X190735183Y-101578457D01*
X190735183Y-101578457D02*
X190687564Y-101673695D01*
X190687564Y-101673695D02*
X190639945Y-101864171D01*
X190639945Y-101864171D02*
X190639945Y-102102266D01*
X190639945Y-102102266D02*
X190687564Y-102292742D01*
X190687564Y-102292742D02*
X190735183Y-102387980D01*
X190735183Y-102387980D02*
X190782802Y-102435600D01*
X190782802Y-102435600D02*
X190878040Y-102483219D01*
X190878040Y-102483219D02*
X190973278Y-102483219D01*
X190973278Y-102483219D02*
X191068516Y-102435600D01*
X191068516Y-102435600D02*
X191116135Y-102387980D01*
X191116135Y-102387980D02*
X191163754Y-102292742D01*
X191163754Y-102292742D02*
X191211373Y-102102266D01*
X191211373Y-102102266D02*
X191211373Y-101864171D01*
X191211373Y-101864171D02*
X191163754Y-101673695D01*
X191163754Y-101673695D02*
X191116135Y-101578457D01*
X191116135Y-101578457D02*
X191068516Y-101530838D01*
X191068516Y-101530838D02*
X190973278Y-101483219D01*
X190306611Y-101483219D02*
X189639945Y-101483219D01*
X189639945Y-101483219D02*
X190068516Y-102483219D01*
D11*
%TO.C,C9*%
X192686000Y-87250252D02*
X192686000Y-86727748D01*
X194156000Y-87250252D02*
X194156000Y-86727748D01*
%TO.C,C8*%
X196567248Y-91842000D02*
X197089752Y-91842000D01*
X196567248Y-93312000D02*
X197089752Y-93312000D01*
%TO.C,C7*%
X196567248Y-89530600D02*
X197089752Y-89530600D01*
X196567248Y-91000600D02*
X197089752Y-91000600D01*
%TD*%
M02*
