M48
; DRILL file {KiCad 8.0.1-8.0.1-1~ubuntu22.04.1} date 2024-04-07T12:19:45+0100
; FORMAT={-:-/ absolute / inch / decimal}
; #@! TF.CreationDate,2024-04-07T12:19:45+01:00
; #@! TF.GenerationSoftware,Kicad,Pcbnew,8.0.1-8.0.1-1~ubuntu22.04.1
; #@! TF.FileFunction,Plated,1,2,PTH
FMAT,2
INCH
; #@! TA.AperFunction,Plated,PTH,ViaDrill
T1C0.0118
; #@! TA.AperFunction,Plated,PTH,ComponentDrill
T2C0.0394
; #@! TA.AperFunction,Plated,PTH,ComponentDrill
T3C0.0630
%
G90
G05
T1
X7.175Y-3.25
X7.175Y-3.375
X7.175Y-4.0
X7.175Y-4.125
X7.175Y-4.25
X7.2021Y-3.8444
X7.33Y-3.615
X7.425Y-3.025
X7.495Y-3.715
X7.495Y-3.755
X7.555Y-3.26
X7.555Y-3.3
X7.555Y-3.475
X7.555Y-3.515
X7.57Y-3.675
X7.61Y-3.675
X7.65Y-3.675
X7.69Y-3.675
X7.775Y-3.375
X7.775Y-3.5
X7.845Y-3.85
X7.85Y-3.175
X7.935Y-3.35
X7.9755Y-3.9241
X8.025Y-3.025
X8.06Y-3.855
X8.06Y-3.895
X8.065Y-3.645
X8.065Y-3.685
X8.115Y-3.495
X8.115Y-3.535
X8.25Y-4.125
X8.25Y-4.25
T2
X7.5946Y-4.175
X7.6946Y-4.175
X7.7946Y-4.175
X7.8946Y-4.175
X8.17Y-3.29
X8.27Y-3.29
T3
X7.98Y-3.25
M30
