M48
; DRILL file {KiCad 8.0.1-8.0.1-1~ubuntu22.04.1} date 2024-04-28T16:40:38+0100
; FORMAT={-:-/ absolute / inch / decimal}
; #@! TF.CreationDate,2024-04-28T16:40:38+01:00
; #@! TF.GenerationSoftware,Kicad,Pcbnew,8.0.1-8.0.1-1~ubuntu22.04.1
; #@! TF.FileFunction,Plated,1,2,PTH
FMAT,2
INCH
; #@! TA.AperFunction,Plated,PTH,ViaDrill
T1C0.0118
; #@! TA.AperFunction,Plated,PTH,ComponentDrill
T2C0.0394
%
G90
G05
T1
X7.36Y-3.46
X7.36Y-3.5
X7.36Y-3.55
X7.36Y-3.59
X7.36Y-3.64
X7.36Y-3.68
X7.36Y-3.73
X7.36Y-3.77
X7.36Y-3.82
X7.36Y-3.86
X7.36Y-3.91
X7.36Y-3.95
X7.615Y-3.59
X7.615Y-4.05
X7.656Y-3.554
X7.67Y-3.3848
X7.685Y-4.05
X7.72Y-4.08
X7.755Y-4.05
X7.79Y-4.08
X7.82Y-3.18
X7.82Y-3.22
X7.82Y-4.05
X7.84Y-3.555
X7.895Y-4.05
X8.13Y-3.46
X8.13Y-3.51
X8.13Y-3.55
X8.13Y-3.6
X8.13Y-3.64
X8.13Y-3.69
T2
X7.5946Y-4.175
X7.6946Y-4.175
X7.7946Y-4.175
X7.8946Y-4.175
M30
