%TF.GenerationSoftware,KiCad,Pcbnew,8.0.1-8.0.1-1~ubuntu22.04.1*%
%TF.CreationDate,2024-04-07T12:19:08+01:00*%
%TF.ProjectId,tps54202_inverting_breakout,74707335-3432-4303-925f-696e76657274,A*%
%TF.SameCoordinates,Original*%
%TF.FileFunction,Soldermask,Top*%
%TF.FilePolarity,Negative*%
%FSLAX46Y46*%
G04 Gerber Fmt 4.6, Leading zero omitted, Abs format (unit mm)*
G04 Created by KiCad (PCBNEW 8.0.1-8.0.1-1~ubuntu22.04.1) date 2024-04-07 12:19:08*
%MOMM*%
%LPD*%
G01*
G04 APERTURE LIST*
G04 Aperture macros list*
%AMRoundRect*
0 Rectangle with rounded corners*
0 $1 Rounding radius*
0 $2 $3 $4 $5 $6 $7 $8 $9 X,Y pos of 4 corners*
0 Add a 4 corners polygon primitive as box body*
4,1,4,$2,$3,$4,$5,$6,$7,$8,$9,$2,$3,0*
0 Add four circle primitives for the rounded corners*
1,1,$1+$1,$2,$3*
1,1,$1+$1,$4,$5*
1,1,$1+$1,$6,$7*
1,1,$1+$1,$8,$9*
0 Add four rect primitives between the rounded corners*
20,1,$1+$1,$2,$3,$4,$5,0*
20,1,$1+$1,$4,$5,$6,$7,0*
20,1,$1+$1,$6,$7,$8,$9,0*
20,1,$1+$1,$8,$9,$2,$3,0*%
G04 Aperture macros list end*
%ADD10C,3.200000*%
%ADD11RoundRect,0.250000X0.337500X0.475000X-0.337500X0.475000X-0.337500X-0.475000X0.337500X-0.475000X0*%
%ADD12RoundRect,0.250000X1.050000X0.550000X-1.050000X0.550000X-1.050000X-0.550000X1.050000X-0.550000X0*%
%ADD13O,1.700000X1.700000*%
%ADD14R,1.700000X1.700000*%
%ADD15RoundRect,0.150000X-0.512500X-0.150000X0.512500X-0.150000X0.512500X0.150000X-0.512500X0.150000X0*%
%ADD16R,2.500000X2.500000*%
%ADD17RoundRect,0.250000X0.450000X-0.350000X0.450000X0.350000X-0.450000X0.350000X-0.450000X-0.350000X0*%
%ADD18RoundRect,0.250000X-0.450000X0.350000X-0.450000X-0.350000X0.450000X-0.350000X0.450000X0.350000X0*%
%ADD19C,2.800000*%
%ADD20R,4.500000X1.750000*%
%ADD21RoundRect,0.250001X0.624999X-0.462499X0.624999X0.462499X-0.624999X0.462499X-0.624999X-0.462499X0*%
G04 APERTURE END LIST*
D10*
%TO.C,H1*%
X184150000Y-76835000D03*
%TD*%
D11*
%TO.C,C6*%
X207496500Y-89281000D03*
X209571500Y-89281000D03*
%TD*%
D12*
%TO.C,C3*%
X189865000Y-88773000D03*
X186265000Y-88773000D03*
%TD*%
D11*
%TO.C,C9*%
X199368500Y-95885000D03*
X201443500Y-95885000D03*
%TD*%
D12*
%TO.C,C5*%
X210356000Y-93091000D03*
X206756000Y-93091000D03*
%TD*%
D11*
%TO.C,C8*%
X189103000Y-97790000D03*
X187028000Y-97790000D03*
%TD*%
D12*
%TO.C,C7*%
X186243500Y-101854000D03*
X189843500Y-101854000D03*
%TD*%
D13*
%TO.C,J1*%
X192903000Y-106045000D03*
X195443000Y-106045000D03*
X197983000Y-106045000D03*
D14*
X200523000Y-106045000D03*
%TD*%
D15*
%TO.C,U1*%
X199263000Y-98745000D03*
X199263000Y-99695000D03*
X199263000Y-100645000D03*
X201538000Y-100645000D03*
X201538000Y-99695000D03*
X201538000Y-98745000D03*
%TD*%
D16*
%TO.C,TP1*%
X204216000Y-106045000D03*
%TD*%
D17*
%TO.C,R2*%
X201549000Y-92202000D03*
X201549000Y-90202000D03*
%TD*%
D16*
%TO.C,TP2*%
X189230000Y-106045000D03*
%TD*%
D12*
%TO.C,C4*%
X210356000Y-98298000D03*
X206756000Y-98298000D03*
%TD*%
D18*
%TO.C,R3*%
X199263000Y-90202000D03*
X199263000Y-92202000D03*
%TD*%
D11*
%TO.C,C1*%
X187027500Y-94869000D03*
X189102500Y-94869000D03*
%TD*%
D14*
%TO.C,J3*%
X207518000Y-83566000D03*
D13*
X210058000Y-83566000D03*
%TD*%
D19*
%TO.C,TP3*%
X202692000Y-82550000D03*
%TD*%
D20*
%TO.C,L1*%
X193802000Y-98171000D03*
X193802000Y-94921000D03*
%TD*%
D18*
%TO.C,R4*%
X182932500Y-94250000D03*
X182932500Y-96250000D03*
%TD*%
D17*
%TO.C,R1*%
X201549000Y-88122000D03*
X201549000Y-86122000D03*
%TD*%
D12*
%TO.C,C2*%
X189865000Y-83312000D03*
X186265000Y-83312000D03*
%TD*%
D21*
%TO.C,D1*%
X182880000Y-91657500D03*
X182880000Y-88682500D03*
%TD*%
D10*
%TO.C,H2*%
X209550000Y-76835000D03*
%TD*%
M02*
