%TF.GenerationSoftware,KiCad,Pcbnew,8.0.1-8.0.1-1~ubuntu22.04.1*%
%TF.CreationDate,2024-04-07T12:19:06+01:00*%
%TF.ProjectId,tps54202_inverting_breakout,74707335-3432-4303-925f-696e76657274,A*%
%TF.SameCoordinates,Original*%
%TF.FileFunction,Copper,L1,Top*%
%TF.FilePolarity,Positive*%
%FSLAX46Y46*%
G04 Gerber Fmt 4.6, Leading zero omitted, Abs format (unit mm)*
G04 Created by KiCad (PCBNEW 8.0.1-8.0.1-1~ubuntu22.04.1) date 2024-04-07 12:19:06*
%MOMM*%
%LPD*%
G01*
G04 APERTURE LIST*
G04 Aperture macros list*
%AMRoundRect*
0 Rectangle with rounded corners*
0 $1 Rounding radius*
0 $2 $3 $4 $5 $6 $7 $8 $9 X,Y pos of 4 corners*
0 Add a 4 corners polygon primitive as box body*
4,1,4,$2,$3,$4,$5,$6,$7,$8,$9,$2,$3,0*
0 Add four circle primitives for the rounded corners*
1,1,$1+$1,$2,$3*
1,1,$1+$1,$4,$5*
1,1,$1+$1,$6,$7*
1,1,$1+$1,$8,$9*
0 Add four rect primitives between the rounded corners*
20,1,$1+$1,$2,$3,$4,$5,0*
20,1,$1+$1,$4,$5,$6,$7,0*
20,1,$1+$1,$6,$7,$8,$9,0*
20,1,$1+$1,$8,$9,$2,$3,0*%
G04 Aperture macros list end*
%TA.AperFunction,SMDPad,CuDef*%
%ADD10RoundRect,0.250000X0.337500X0.475000X-0.337500X0.475000X-0.337500X-0.475000X0.337500X-0.475000X0*%
%TD*%
%TA.AperFunction,SMDPad,CuDef*%
%ADD11RoundRect,0.250000X1.050000X0.550000X-1.050000X0.550000X-1.050000X-0.550000X1.050000X-0.550000X0*%
%TD*%
%TA.AperFunction,ComponentPad*%
%ADD12O,1.700000X1.700000*%
%TD*%
%TA.AperFunction,ComponentPad*%
%ADD13R,1.700000X1.700000*%
%TD*%
%TA.AperFunction,SMDPad,CuDef*%
%ADD14RoundRect,0.150000X-0.512500X-0.150000X0.512500X-0.150000X0.512500X0.150000X-0.512500X0.150000X0*%
%TD*%
%TA.AperFunction,SMDPad,CuDef*%
%ADD15R,2.500000X2.500000*%
%TD*%
%TA.AperFunction,SMDPad,CuDef*%
%ADD16RoundRect,0.250000X0.450000X-0.350000X0.450000X0.350000X-0.450000X0.350000X-0.450000X-0.350000X0*%
%TD*%
%TA.AperFunction,SMDPad,CuDef*%
%ADD17RoundRect,0.250000X-0.450000X0.350000X-0.450000X-0.350000X0.450000X-0.350000X0.450000X0.350000X0*%
%TD*%
%TA.AperFunction,ComponentPad*%
%ADD18C,2.800000*%
%TD*%
%TA.AperFunction,SMDPad,CuDef*%
%ADD19R,4.500000X1.750000*%
%TD*%
%TA.AperFunction,SMDPad,CuDef*%
%ADD20RoundRect,0.250001X0.624999X-0.462499X0.624999X0.462499X-0.624999X0.462499X-0.624999X-0.462499X0*%
%TD*%
%TA.AperFunction,ViaPad*%
%ADD21C,0.600000*%
%TD*%
%TA.AperFunction,Conductor*%
%ADD22C,0.500000*%
%TD*%
%TA.AperFunction,Conductor*%
%ADD23C,0.200000*%
%TD*%
G04 APERTURE END LIST*
D10*
%TO.P,C6,2*%
%TO.N,GND*%
X207496500Y-89281000D03*
%TO.P,C6,1*%
%TO.N,/VIN*%
X209571500Y-89281000D03*
%TD*%
D11*
%TO.P,C3,1*%
%TO.N,GND*%
X189865000Y-88773000D03*
%TO.P,C3,2*%
%TO.N,/VOUT*%
X186265000Y-88773000D03*
%TD*%
D10*
%TO.P,C9,2*%
%TO.N,Net-(U1-SW)*%
X199368500Y-95885000D03*
%TO.P,C9,1*%
%TO.N,Net-(U1-BOOT)*%
X201443500Y-95885000D03*
%TD*%
D11*
%TO.P,C5,1*%
%TO.N,/VIN*%
X210356000Y-93091000D03*
%TO.P,C5,2*%
%TO.N,GND*%
X206756000Y-93091000D03*
%TD*%
D10*
%TO.P,C8,1*%
%TO.N,/VIN*%
X189103000Y-97790000D03*
%TO.P,C8,2*%
%TO.N,/VOUT*%
X187028000Y-97790000D03*
%TD*%
D11*
%TO.P,C7,2*%
%TO.N,/VOUT*%
X186243500Y-101854000D03*
%TO.P,C7,1*%
%TO.N,/VIN*%
X189843500Y-101854000D03*
%TD*%
D12*
%TO.P,J1,4,Pin_4*%
%TO.N,/VOUT*%
X192903000Y-106045000D03*
%TO.P,J1,3,Pin_3*%
%TO.N,GND*%
X195443000Y-106045000D03*
%TO.P,J1,2,Pin_2*%
X197983000Y-106045000D03*
D13*
%TO.P,J1,1,Pin_1*%
%TO.N,/VIN*%
X200523000Y-106045000D03*
%TD*%
D14*
%TO.P,U1,1,GND*%
%TO.N,/VOUT*%
X199263000Y-98745000D03*
%TO.P,U1,2,SW*%
%TO.N,Net-(U1-SW)*%
X199263000Y-99695000D03*
%TO.P,U1,3,VIN*%
%TO.N,/VIN*%
X199263000Y-100645000D03*
%TO.P,U1,4,FB*%
%TO.N,/VSENSE*%
X201538000Y-100645000D03*
%TO.P,U1,5,EN*%
%TO.N,Net-(J3-Pin_1)*%
X201538000Y-99695000D03*
%TO.P,U1,6,BOOT*%
%TO.N,Net-(U1-BOOT)*%
X201538000Y-98745000D03*
%TD*%
D15*
%TO.P,TP1,1,1*%
%TO.N,/VIN*%
X204216000Y-106045000D03*
%TD*%
D16*
%TO.P,R2,1*%
%TO.N,/VSENSE*%
X201549000Y-92202000D03*
%TO.P,R2,2*%
%TO.N,Net-(R1-Pad1)*%
X201549000Y-90202000D03*
%TD*%
D15*
%TO.P,TP2,1,1*%
%TO.N,/VOUT*%
X189230000Y-106045000D03*
%TD*%
D11*
%TO.P,C4,1*%
%TO.N,/VIN*%
X210356000Y-98298000D03*
%TO.P,C4,2*%
%TO.N,GND*%
X206756000Y-98298000D03*
%TD*%
D17*
%TO.P,R3,1*%
%TO.N,/VOUT*%
X199263000Y-90202000D03*
%TO.P,R3,2*%
%TO.N,/VSENSE*%
X199263000Y-92202000D03*
%TD*%
D10*
%TO.P,C1,2*%
%TO.N,/VOUT*%
X187027500Y-94869000D03*
%TO.P,C1,1*%
%TO.N,GND*%
X189102500Y-94869000D03*
%TD*%
D13*
%TO.P,J3,1,Pin_1*%
%TO.N,Net-(J3-Pin_1)*%
X207518000Y-83566000D03*
D12*
%TO.P,J3,2,Pin_2*%
%TO.N,/VIN*%
X210058000Y-83566000D03*
%TD*%
D18*
%TO.P,TP3,1,1*%
%TO.N,GND*%
X202692000Y-82550000D03*
%TD*%
D19*
%TO.P,L1,1,1*%
%TO.N,Net-(U1-SW)*%
X193802000Y-98171000D03*
%TO.P,L1,2,2*%
%TO.N,GND*%
X193802000Y-94921000D03*
%TD*%
D17*
%TO.P,R4,1*%
%TO.N,Net-(D1-K)*%
X182932500Y-94250000D03*
%TO.P,R4,2*%
%TO.N,GND*%
X182932500Y-96250000D03*
%TD*%
D16*
%TO.P,R1,1*%
%TO.N,Net-(R1-Pad1)*%
X201549000Y-88122000D03*
%TO.P,R1,2*%
%TO.N,GND*%
X201549000Y-86122000D03*
%TD*%
D11*
%TO.P,C2,1*%
%TO.N,GND*%
X189865000Y-83312000D03*
%TO.P,C2,2*%
%TO.N,/VOUT*%
X186265000Y-83312000D03*
%TD*%
D20*
%TO.P,D1,1,K*%
%TO.N,Net-(D1-K)*%
X182880000Y-91657500D03*
%TO.P,D1,2,A*%
%TO.N,/VOUT*%
X182880000Y-88682500D03*
%TD*%
D21*
%TO.N,GND*%
X201549000Y-85090000D03*
X197485000Y-88900000D03*
X197485000Y-85725000D03*
X199390000Y-80645000D03*
X188595000Y-76835000D03*
X203835000Y-76835000D03*
X209550000Y-104775000D03*
X209550000Y-107950000D03*
X182245000Y-82550000D03*
X182245000Y-85725000D03*
X182245000Y-104775000D03*
X182245000Y-101600000D03*
X182245000Y-107950000D03*
X204724000Y-97917000D03*
X204724000Y-98933000D03*
X206121000Y-88773000D03*
X206121000Y-89789000D03*
X204851000Y-92583000D03*
X204851000Y-93599000D03*
X191897000Y-83820000D03*
X191897000Y-82804000D03*
X191897000Y-89281000D03*
X191897000Y-88265000D03*
X190373000Y-95377000D03*
X190373000Y-94361000D03*
X195326000Y-93345000D03*
X194310000Y-93345000D03*
X193294000Y-93345000D03*
X192278000Y-93345000D03*
X182932500Y-97647000D03*
%TO.N,Net-(J3-Pin_1)*%
X202577000Y-99672669D03*
%TO.N,/VOUT*%
X186182000Y-91821000D03*
X199263000Y-97790000D03*
%TD*%
D22*
%TO.N,/VIN*%
X210180000Y-83688000D02*
X210058000Y-83566000D01*
%TO.N,/VOUT*%
X182880000Y-88682500D02*
X186174500Y-88682500D01*
X186174500Y-88682500D02*
X186265000Y-88773000D01*
%TO.N,GND*%
X182932500Y-96250000D02*
X182932500Y-97647000D01*
%TO.N,/VOUT*%
X199263000Y-90202000D02*
X199263000Y-83566000D01*
X196723000Y-81026000D02*
X186309000Y-81026000D01*
X199263000Y-83566000D02*
X196723000Y-81026000D01*
X186309000Y-81026000D02*
X186265000Y-81070000D01*
X186265000Y-81070000D02*
X186265000Y-83312000D01*
%TO.N,Net-(D1-K)*%
X182880000Y-91657500D02*
X182880000Y-94175500D01*
%TO.N,GND*%
X201549000Y-86122000D02*
X201565000Y-86106000D01*
%TO.N,/VSENSE*%
X201543500Y-100645000D02*
X202758000Y-100645000D01*
X202758000Y-100645000D02*
X203327000Y-100076000D01*
X203327000Y-100076000D02*
X203327000Y-92726000D01*
X203327000Y-92726000D02*
X202803000Y-92202000D01*
D23*
%TO.N,Net-(J3-Pin_1)*%
X201538000Y-99695000D02*
X202554669Y-99695000D01*
X202554669Y-99695000D02*
X202577000Y-99672669D01*
D22*
%TO.N,/VSENSE*%
X201549000Y-92202000D02*
X199263000Y-92202000D01*
%TO.N,/VOUT*%
X199263000Y-97790000D02*
X199263000Y-98745000D01*
%TO.N,Net-(U1-SW)*%
X199268500Y-99695000D02*
X197485000Y-99695000D01*
X197485000Y-99695000D02*
X196596000Y-98806000D01*
X196596000Y-98806000D02*
X193802000Y-98806000D01*
X193802000Y-98806000D02*
X193802000Y-98780000D01*
%TO.N,Net-(U1-BOOT)*%
X201538000Y-98745000D02*
X201538000Y-95979500D01*
X201538000Y-95979500D02*
X201443500Y-95885000D01*
X201549000Y-98739500D02*
X201543500Y-98745000D01*
%TO.N,/VSENSE*%
X202803000Y-92202000D02*
X201549000Y-92202000D01*
%TO.N,Net-(R1-Pad1)*%
X201549000Y-90202000D02*
X201549000Y-88122000D01*
%TD*%
%TA.AperFunction,Conductor*%
%TO.N,/VIN*%
G36*
X190443039Y-97047685D02*
G01*
X190488794Y-97100489D01*
X190500000Y-97152000D01*
X190500000Y-100330000D01*
X197046866Y-100330000D01*
X197113905Y-100349685D01*
X197115747Y-100350891D01*
X197129505Y-100360084D01*
X197129507Y-100360084D01*
X197129511Y-100360087D01*
X197266082Y-100416656D01*
X197266087Y-100416658D01*
X197266091Y-100416658D01*
X197266092Y-100416659D01*
X197411079Y-100445500D01*
X197411082Y-100445500D01*
X197411083Y-100445500D01*
X197558918Y-100445500D01*
X198468172Y-100445500D01*
X198502767Y-100450424D01*
X198647926Y-100492597D01*
X198647929Y-100492597D01*
X198647931Y-100492598D01*
X198684806Y-100495500D01*
X198684814Y-100495500D01*
X199841186Y-100495500D01*
X199841194Y-100495500D01*
X199878069Y-100492598D01*
X199878070Y-100492597D01*
X199878715Y-100492480D01*
X199879080Y-100492518D01*
X199884386Y-100492101D01*
X199884463Y-100493085D01*
X199948201Y-100499796D01*
X200002701Y-100543517D01*
X200024911Y-100609763D01*
X200025000Y-100614461D01*
X200025000Y-103505000D01*
X188592000Y-103505000D01*
X188524961Y-103485315D01*
X188479206Y-103432511D01*
X188468000Y-103381000D01*
X188468000Y-97152000D01*
X188487685Y-97084961D01*
X188540489Y-97039206D01*
X188592000Y-97028000D01*
X190376000Y-97028000D01*
X190443039Y-97047685D01*
G37*
%TD.AperFunction*%
%TD*%
%TA.AperFunction,Conductor*%
%TO.N,/VIN*%
G36*
X211779039Y-82315685D02*
G01*
X211824794Y-82368489D01*
X211836000Y-82420000D01*
X211836000Y-103254000D01*
X211816315Y-103321039D01*
X211763511Y-103366794D01*
X211712000Y-103378000D01*
X205740000Y-103378000D01*
X205740000Y-107318000D01*
X205720315Y-107385039D01*
X205667511Y-107430794D01*
X205616000Y-107442000D01*
X199514000Y-107442000D01*
X199446961Y-107422315D01*
X199401206Y-107369511D01*
X199390000Y-107318000D01*
X199390000Y-103505000D01*
X200025000Y-103505000D01*
X200025000Y-101473000D01*
X203962000Y-101473000D01*
X203962000Y-100514134D01*
X203981685Y-100447095D01*
X203982897Y-100445245D01*
X203986199Y-100440302D01*
X203992084Y-100431495D01*
X204045522Y-100302485D01*
X204048659Y-100294912D01*
X204072407Y-100175520D01*
X204077500Y-100149918D01*
X204077500Y-99696546D01*
X204097185Y-99629507D01*
X204149989Y-99583752D01*
X204219147Y-99573808D01*
X204267473Y-99591553D01*
X204374475Y-99658788D01*
X204544745Y-99718368D01*
X204544750Y-99718369D01*
X204723996Y-99738565D01*
X204724000Y-99738565D01*
X204724004Y-99738565D01*
X204903249Y-99718369D01*
X204903252Y-99718368D01*
X204903255Y-99718368D01*
X205073522Y-99658789D01*
X205187763Y-99587005D01*
X205253734Y-99568000D01*
X205472841Y-99568000D01*
X205511844Y-99574294D01*
X205553203Y-99587999D01*
X205655991Y-99598500D01*
X207856008Y-99598499D01*
X207958797Y-99587999D01*
X208000156Y-99574293D01*
X208039160Y-99568000D01*
X208915000Y-99568000D01*
X208915000Y-82420000D01*
X208934685Y-82352961D01*
X208987489Y-82307206D01*
X209039000Y-82296000D01*
X211712000Y-82296000D01*
X211779039Y-82315685D01*
G37*
%TD.AperFunction*%
%TD*%
%TA.AperFunction,Conductor*%
%TO.N,GND*%
G36*
X208280000Y-99060000D02*
G01*
X205232000Y-99060000D01*
X205232000Y-85979000D01*
X208280000Y-85979000D01*
X208280000Y-99060000D01*
G37*
%TD.AperFunction*%
%TD*%
%TA.AperFunction,Conductor*%
%TO.N,/VOUT*%
G36*
X187522039Y-82061685D02*
G01*
X187567794Y-82114489D01*
X187579000Y-82166000D01*
X187579000Y-104521000D01*
X193932000Y-104521000D01*
X193999039Y-104540685D01*
X194044794Y-104593489D01*
X194056000Y-104645000D01*
X194056000Y-107445000D01*
X194036315Y-107512039D01*
X193983511Y-107557794D01*
X193932000Y-107569000D01*
X187579000Y-107569000D01*
X184655000Y-107569000D01*
X184587961Y-107549315D01*
X184542206Y-107496511D01*
X184531000Y-107445000D01*
X184531000Y-82166000D01*
X184550685Y-82098961D01*
X184603489Y-82053206D01*
X184655000Y-82042000D01*
X187455000Y-82042000D01*
X187522039Y-82061685D01*
G37*
%TD.AperFunction*%
%TD*%
%TA.AperFunction,Conductor*%
%TO.N,GND*%
G36*
X196342000Y-93726000D02*
G01*
X196342000Y-96393000D01*
X188595000Y-96393000D01*
X188595000Y-82042000D01*
X196342000Y-82042000D01*
X196342000Y-93726000D01*
G37*
%TD.AperFunction*%
%TD*%
%TA.AperFunction,Conductor*%
%TO.N,Net-(U1-SW)*%
G36*
X199968039Y-95142685D02*
G01*
X200013794Y-95195489D01*
X200025000Y-95247000D01*
X200025000Y-96650000D01*
X200005315Y-96717039D01*
X199952511Y-96762794D01*
X199901000Y-96774000D01*
X198120000Y-96774000D01*
X198120000Y-98415932D01*
X198115076Y-98450527D01*
X198102903Y-98492424D01*
X198102901Y-98492436D01*
X198100000Y-98529298D01*
X198100000Y-98960701D01*
X198102901Y-98997567D01*
X198102902Y-98997570D01*
X198115076Y-99039471D01*
X198120000Y-99074067D01*
X198120000Y-99816000D01*
X198100315Y-99883039D01*
X198047511Y-99928794D01*
X197996000Y-99940000D01*
X197473085Y-99940000D01*
X197448893Y-99937617D01*
X197425517Y-99932967D01*
X197402258Y-99925912D01*
X197362693Y-99909524D01*
X197322953Y-99893064D01*
X197322952Y-99893064D01*
X197277317Y-99874162D01*
X197273255Y-99872394D01*
X197256328Y-99864663D01*
X197189283Y-99844976D01*
X197141810Y-99838150D01*
X197046866Y-99824500D01*
X197046864Y-99824500D01*
X191386000Y-99824500D01*
X191318961Y-99804815D01*
X191273206Y-99752011D01*
X191262000Y-99700500D01*
X191262000Y-97152000D01*
X191281685Y-97084961D01*
X191334489Y-97039206D01*
X191386000Y-97028000D01*
X196977000Y-97028000D01*
X196977000Y-95247000D01*
X196996685Y-95179961D01*
X197049489Y-95134206D01*
X197101000Y-95123000D01*
X199901000Y-95123000D01*
X199968039Y-95142685D01*
G37*
%TD.AperFunction*%
%TD*%
%TA.AperFunction,Conductor*%
%TO.N,GND*%
G36*
X196427809Y-81796185D02*
G01*
X196448451Y-81812819D01*
X198476181Y-83840548D01*
X198509666Y-83901871D01*
X198512500Y-83928229D01*
X198512500Y-89086362D01*
X198492815Y-89153401D01*
X198453598Y-89191899D01*
X198448548Y-89195015D01*
X198344342Y-89259289D01*
X198220289Y-89383342D01*
X198128187Y-89532663D01*
X198128186Y-89532666D01*
X198073001Y-89699203D01*
X198073001Y-89699204D01*
X198073000Y-89699204D01*
X198062500Y-89801983D01*
X198062500Y-90602001D01*
X198062501Y-90602019D01*
X198073000Y-90704796D01*
X198073001Y-90704799D01*
X198128185Y-90871331D01*
X198128187Y-90871336D01*
X198220289Y-91020657D01*
X198313951Y-91114319D01*
X198347436Y-91175642D01*
X198342452Y-91245334D01*
X198313951Y-91289681D01*
X198220289Y-91383342D01*
X198128187Y-91532663D01*
X198128185Y-91532668D01*
X198100349Y-91616670D01*
X198073001Y-91699203D01*
X198073001Y-91699204D01*
X198073000Y-91699204D01*
X198062500Y-91801983D01*
X198062500Y-92602001D01*
X198062501Y-92602019D01*
X198073000Y-92704796D01*
X198073001Y-92704799D01*
X198106143Y-92804813D01*
X198128186Y-92871334D01*
X198220288Y-93020656D01*
X198344344Y-93144712D01*
X198493666Y-93236814D01*
X198660203Y-93291999D01*
X198762991Y-93302500D01*
X199763008Y-93302499D01*
X199763016Y-93302498D01*
X199763019Y-93302498D01*
X199819302Y-93296748D01*
X199865797Y-93291999D01*
X200032334Y-93236814D01*
X200181656Y-93144712D01*
X200305712Y-93020656D01*
X200305715Y-93020650D01*
X200308734Y-93016834D01*
X200365755Y-92976457D01*
X200435555Y-92973319D01*
X200495970Y-93008414D01*
X200503266Y-93016834D01*
X200506288Y-93020656D01*
X200630344Y-93144712D01*
X200779666Y-93236814D01*
X200946203Y-93291999D01*
X201048991Y-93302500D01*
X202049008Y-93302499D01*
X202049016Y-93302498D01*
X202049019Y-93302498D01*
X202105302Y-93296748D01*
X202151797Y-93291999D01*
X202318334Y-93236814D01*
X202387403Y-93194211D01*
X202454795Y-93175771D01*
X202521459Y-93196693D01*
X202566228Y-93250335D01*
X202576500Y-93299750D01*
X202576500Y-94844770D01*
X202556815Y-94911809D01*
X202504011Y-94957564D01*
X202434853Y-94967508D01*
X202371297Y-94938483D01*
X202364819Y-94932451D01*
X202249657Y-94817289D01*
X202249656Y-94817288D01*
X202100334Y-94725186D01*
X201933797Y-94670001D01*
X201933795Y-94670000D01*
X201831010Y-94659500D01*
X201055998Y-94659500D01*
X201055980Y-94659501D01*
X200953203Y-94670000D01*
X200953200Y-94670001D01*
X200786668Y-94725185D01*
X200786663Y-94725187D01*
X200637344Y-94817288D01*
X200580216Y-94874415D01*
X200518892Y-94907899D01*
X200449201Y-94902913D01*
X200400382Y-94866366D01*
X200398725Y-94867803D01*
X200350076Y-94811659D01*
X200350072Y-94811656D01*
X200350070Y-94811653D01*
X200241336Y-94717433D01*
X200241333Y-94717431D01*
X200241331Y-94717430D01*
X200110465Y-94657664D01*
X200110460Y-94657662D01*
X200110459Y-94657662D01*
X200043420Y-94637977D01*
X200043422Y-94637977D01*
X200043417Y-94637976D01*
X199981347Y-94629052D01*
X199901000Y-94617500D01*
X197101000Y-94617500D01*
X197100991Y-94617500D01*
X197100990Y-94617501D01*
X196993549Y-94629052D01*
X196993537Y-94629054D01*
X196942027Y-94640260D01*
X196839502Y-94674383D01*
X196839496Y-94674386D01*
X196718462Y-94752171D01*
X196718451Y-94752179D01*
X196665659Y-94797923D01*
X196571433Y-94906664D01*
X196571430Y-94906668D01*
X196511664Y-95037534D01*
X196491976Y-95104582D01*
X196471500Y-95247001D01*
X196471500Y-96398500D01*
X196451815Y-96465539D01*
X196399011Y-96511294D01*
X196347500Y-96522500D01*
X191386000Y-96522500D01*
X191385991Y-96522500D01*
X191385990Y-96522501D01*
X191278549Y-96534052D01*
X191278537Y-96534054D01*
X191227027Y-96545260D01*
X191124502Y-96579383D01*
X191124496Y-96579386D01*
X191003462Y-96657171D01*
X191003458Y-96657173D01*
X190961146Y-96693838D01*
X190897590Y-96722863D01*
X190828432Y-96712919D01*
X190798740Y-96693837D01*
X190716339Y-96622435D01*
X190716331Y-96622430D01*
X190585465Y-96562664D01*
X190585460Y-96562662D01*
X190585459Y-96562662D01*
X190518420Y-96542977D01*
X190518422Y-96542977D01*
X190518417Y-96542976D01*
X190456347Y-96534052D01*
X190376000Y-96522500D01*
X188592000Y-96522500D01*
X188591991Y-96522500D01*
X188591990Y-96522501D01*
X188484549Y-96534052D01*
X188484537Y-96534054D01*
X188433027Y-96545260D01*
X188330502Y-96579383D01*
X188330498Y-96579385D01*
X188275539Y-96614706D01*
X188208500Y-96634390D01*
X188141460Y-96614705D01*
X188095706Y-96561901D01*
X188084500Y-96510390D01*
X188084500Y-95578667D01*
X188090794Y-95539663D01*
X188104999Y-95496797D01*
X188115500Y-95394009D01*
X188115499Y-94343992D01*
X188104999Y-94241203D01*
X188090794Y-94198334D01*
X188084500Y-94159330D01*
X188084500Y-82166010D01*
X188084500Y-82166000D01*
X188072947Y-82058544D01*
X188069348Y-82042000D01*
X188595000Y-82042000D01*
X188595000Y-96393000D01*
X196342000Y-96393000D01*
X196342000Y-93726000D01*
X196342000Y-82042000D01*
X188595000Y-82042000D01*
X188069348Y-82042000D01*
X188061741Y-82007033D01*
X188049722Y-81970923D01*
X188039317Y-81939660D01*
X188036823Y-81869835D01*
X188072475Y-81809745D01*
X188134954Y-81778470D01*
X188156971Y-81776500D01*
X196360770Y-81776500D01*
X196427809Y-81796185D01*
G37*
%TD.AperFunction*%
%TA.AperFunction,Conductor*%
G36*
X212802539Y-73037185D02*
G01*
X212848294Y-73089989D01*
X212859500Y-73141500D01*
X212859500Y-109230500D01*
X212839815Y-109297539D01*
X212787011Y-109343294D01*
X212735500Y-109354500D01*
X180964500Y-109354500D01*
X180897461Y-109334815D01*
X180851706Y-109282011D01*
X180840500Y-109230500D01*
X180840500Y-92170015D01*
X181504500Y-92170015D01*
X181515000Y-92272795D01*
X181515001Y-92272797D01*
X181542593Y-92356065D01*
X181570186Y-92439335D01*
X181570187Y-92439337D01*
X181662286Y-92588651D01*
X181662289Y-92588655D01*
X181786344Y-92712710D01*
X181786348Y-92712713D01*
X181935662Y-92804812D01*
X181935664Y-92804813D01*
X181935666Y-92804814D01*
X182044505Y-92840879D01*
X182101949Y-92880651D01*
X182128772Y-92945167D01*
X182129500Y-92958585D01*
X182129500Y-93166743D01*
X182109815Y-93233782D01*
X182070598Y-93272281D01*
X182013844Y-93307287D01*
X181889789Y-93431342D01*
X181797687Y-93580663D01*
X181797686Y-93580666D01*
X181742501Y-93747203D01*
X181742501Y-93747204D01*
X181742500Y-93747204D01*
X181732000Y-93849983D01*
X181732000Y-94650001D01*
X181732001Y-94650019D01*
X181742500Y-94752796D01*
X181742501Y-94752799D01*
X181797685Y-94919331D01*
X181797687Y-94919336D01*
X181809497Y-94938483D01*
X181889788Y-95068656D01*
X182013844Y-95192712D01*
X182163166Y-95284814D01*
X182329703Y-95339999D01*
X182432491Y-95350500D01*
X183432508Y-95350499D01*
X183432516Y-95350498D01*
X183432519Y-95350498D01*
X183488802Y-95344748D01*
X183535297Y-95339999D01*
X183701834Y-95284814D01*
X183836404Y-95201810D01*
X183903796Y-95183371D01*
X183970459Y-95204294D01*
X184015229Y-95257936D01*
X184025500Y-95307350D01*
X184025500Y-107445000D01*
X184025501Y-107445009D01*
X184037052Y-107552450D01*
X184037054Y-107552462D01*
X184048260Y-107603972D01*
X184082383Y-107706497D01*
X184082386Y-107706503D01*
X184160171Y-107827537D01*
X184160179Y-107827548D01*
X184205923Y-107880340D01*
X184205926Y-107880343D01*
X184205930Y-107880347D01*
X184314664Y-107974567D01*
X184314667Y-107974568D01*
X184314668Y-107974569D01*
X184408925Y-108017616D01*
X184445541Y-108034338D01*
X184512580Y-108054023D01*
X184512584Y-108054024D01*
X184655000Y-108074500D01*
X184655003Y-108074500D01*
X193931990Y-108074500D01*
X193932000Y-108074500D01*
X194039456Y-108062947D01*
X194090967Y-108051741D01*
X194125197Y-108040347D01*
X194193497Y-108017616D01*
X194193501Y-108017613D01*
X194193504Y-108017613D01*
X194314543Y-107939825D01*
X194367347Y-107894070D01*
X194461567Y-107785336D01*
X194521338Y-107654459D01*
X194541023Y-107587420D01*
X194541024Y-107587416D01*
X194561500Y-107445000D01*
X194561500Y-104645000D01*
X194549947Y-104537544D01*
X194538741Y-104486033D01*
X194538637Y-104485722D01*
X194504616Y-104383502D01*
X194504613Y-104383496D01*
X194426828Y-104262462D01*
X194426826Y-104262458D01*
X194386312Y-104215703D01*
X194357287Y-104152147D01*
X194367230Y-104082989D01*
X194412985Y-104030185D01*
X194480025Y-104010500D01*
X198760500Y-104010500D01*
X198827539Y-104030185D01*
X198873294Y-104082989D01*
X198884500Y-104134500D01*
X198884500Y-107318000D01*
X198884501Y-107318009D01*
X198896052Y-107425450D01*
X198896054Y-107425462D01*
X198907260Y-107476972D01*
X198941383Y-107579497D01*
X198941386Y-107579503D01*
X199019171Y-107700537D01*
X199019179Y-107700548D01*
X199064923Y-107753340D01*
X199064926Y-107753343D01*
X199064930Y-107753347D01*
X199173664Y-107847567D01*
X199173667Y-107847568D01*
X199173668Y-107847569D01*
X199275488Y-107894070D01*
X199304541Y-107907338D01*
X199371580Y-107927023D01*
X199371584Y-107927024D01*
X199514000Y-107947500D01*
X199514003Y-107947500D01*
X205615990Y-107947500D01*
X205616000Y-107947500D01*
X205723456Y-107935947D01*
X205774967Y-107924741D01*
X205809197Y-107913347D01*
X205877497Y-107890616D01*
X205877501Y-107890613D01*
X205877504Y-107890613D01*
X205998543Y-107812825D01*
X206051347Y-107767070D01*
X206145567Y-107658336D01*
X206205338Y-107527459D01*
X206225023Y-107460420D01*
X206225024Y-107460416D01*
X206245500Y-107318000D01*
X206245500Y-104007500D01*
X206265185Y-103940461D01*
X206317989Y-103894706D01*
X206369500Y-103883500D01*
X211711990Y-103883500D01*
X211712000Y-103883500D01*
X211819456Y-103871947D01*
X211870967Y-103860741D01*
X211905197Y-103849347D01*
X211973497Y-103826616D01*
X211973501Y-103826613D01*
X211973504Y-103826613D01*
X212094543Y-103748825D01*
X212147347Y-103703070D01*
X212241567Y-103594336D01*
X212301338Y-103463459D01*
X212321023Y-103396420D01*
X212321024Y-103396416D01*
X212341500Y-103254000D01*
X212341500Y-82420000D01*
X212329947Y-82312544D01*
X212318741Y-82261033D01*
X212318637Y-82260722D01*
X212284616Y-82158502D01*
X212284613Y-82158496D01*
X212206828Y-82037462D01*
X212206825Y-82037457D01*
X212194804Y-82023584D01*
X212161076Y-81984659D01*
X212161072Y-81984656D01*
X212161070Y-81984653D01*
X212052336Y-81890433D01*
X212052333Y-81890431D01*
X212052331Y-81890430D01*
X211921465Y-81830664D01*
X211921460Y-81830662D01*
X211921459Y-81830662D01*
X211854420Y-81810977D01*
X211854422Y-81810977D01*
X211854417Y-81810976D01*
X211792347Y-81802052D01*
X211712000Y-81790500D01*
X209039000Y-81790500D01*
X209038991Y-81790500D01*
X209038990Y-81790501D01*
X208931549Y-81802052D01*
X208931537Y-81802054D01*
X208880027Y-81813260D01*
X208777502Y-81847383D01*
X208777496Y-81847386D01*
X208656462Y-81925171D01*
X208656451Y-81925179D01*
X208603659Y-81970923D01*
X208509433Y-82079664D01*
X208509431Y-82079666D01*
X208480501Y-82143013D01*
X208434745Y-82195817D01*
X208367707Y-82215500D01*
X206620129Y-82215500D01*
X206620123Y-82215501D01*
X206560516Y-82221908D01*
X206425671Y-82272202D01*
X206425664Y-82272206D01*
X206310455Y-82358452D01*
X206310452Y-82358455D01*
X206224206Y-82473664D01*
X206224202Y-82473671D01*
X206173908Y-82608517D01*
X206167501Y-82668116D01*
X206167500Y-82668135D01*
X206167500Y-84463870D01*
X206167501Y-84463876D01*
X206173908Y-84523483D01*
X206224202Y-84658328D01*
X206224206Y-84658335D01*
X206310452Y-84773544D01*
X206310455Y-84773547D01*
X206425664Y-84859793D01*
X206425671Y-84859797D01*
X206560517Y-84910091D01*
X206560516Y-84910091D01*
X206567444Y-84910835D01*
X206620127Y-84916500D01*
X208285500Y-84916499D01*
X208352539Y-84936184D01*
X208398294Y-84988987D01*
X208409500Y-85040499D01*
X208409500Y-98938500D01*
X208389815Y-99005539D01*
X208337011Y-99051294D01*
X208285500Y-99062500D01*
X208039149Y-99062500D01*
X207958642Y-99068954D01*
X207919648Y-99075245D01*
X207919641Y-99075246D01*
X207919639Y-99075247D01*
X207905962Y-99078593D01*
X207867487Y-99088007D01*
X207850631Y-99090916D01*
X207836546Y-99092356D01*
X207823934Y-99092999D01*
X205688063Y-99092999D01*
X205675469Y-99092357D01*
X205663818Y-99091167D01*
X205661376Y-99090918D01*
X205644510Y-99088007D01*
X205620995Y-99082253D01*
X205592376Y-99075250D01*
X205592373Y-99075249D01*
X205592371Y-99075249D01*
X205553385Y-99068958D01*
X205553387Y-99068958D01*
X205553373Y-99068956D01*
X205553367Y-99068955D01*
X205553356Y-99068954D01*
X205472850Y-99062500D01*
X205472841Y-99062500D01*
X205253734Y-99062500D01*
X205253732Y-99062500D01*
X205113801Y-99082253D01*
X205113797Y-99082254D01*
X205047835Y-99101256D01*
X205047823Y-99101261D01*
X204918817Y-99158988D01*
X204918803Y-99158996D01*
X204864629Y-99193036D01*
X204839613Y-99205083D01*
X204803245Y-99217809D01*
X204776175Y-99223988D01*
X204742429Y-99227790D01*
X204737885Y-99228302D01*
X204710123Y-99228302D01*
X204671824Y-99223986D01*
X204644757Y-99217809D01*
X204608379Y-99205080D01*
X204583361Y-99193032D01*
X204536421Y-99163537D01*
X204441724Y-99117036D01*
X204441716Y-99117033D01*
X204441714Y-99117032D01*
X204393388Y-99099287D01*
X204291083Y-99073453D01*
X204201500Y-99073453D01*
X204134461Y-99053768D01*
X204088706Y-99000964D01*
X204077500Y-98949453D01*
X204077500Y-92652079D01*
X204048659Y-92507092D01*
X204048658Y-92507091D01*
X204048658Y-92507087D01*
X203992084Y-92370505D01*
X203959186Y-92321270D01*
X203959185Y-92321268D01*
X203909956Y-92247589D01*
X203909952Y-92247584D01*
X203281421Y-91619052D01*
X203281414Y-91619046D01*
X203207729Y-91569812D01*
X203207729Y-91569813D01*
X203158491Y-91536913D01*
X203021917Y-91480343D01*
X203021907Y-91480340D01*
X202876920Y-91451500D01*
X202876918Y-91451500D01*
X202702958Y-91451500D01*
X202635919Y-91431815D01*
X202597420Y-91392598D01*
X202591712Y-91383344D01*
X202498049Y-91289681D01*
X202464564Y-91228358D01*
X202469548Y-91158666D01*
X202498049Y-91114319D01*
X202591712Y-91020656D01*
X202683814Y-90871334D01*
X202738999Y-90704797D01*
X202749500Y-90602009D01*
X202749499Y-89801992D01*
X202738999Y-89699203D01*
X202683814Y-89532666D01*
X202591712Y-89383344D01*
X202467656Y-89259288D01*
X202467653Y-89259286D01*
X202467628Y-89259266D01*
X202467613Y-89259245D01*
X202462549Y-89254181D01*
X202463414Y-89253315D01*
X202427251Y-89202245D01*
X202424113Y-89132445D01*
X202459208Y-89072030D01*
X202467628Y-89064734D01*
X202467654Y-89064713D01*
X202467656Y-89064712D01*
X202591712Y-88940656D01*
X202683814Y-88791334D01*
X202738999Y-88624797D01*
X202749500Y-88522009D01*
X202749499Y-87721992D01*
X202738999Y-87619203D01*
X202683814Y-87452666D01*
X202591712Y-87303344D01*
X202467656Y-87179288D01*
X202318334Y-87087186D01*
X202151797Y-87032001D01*
X202151795Y-87032000D01*
X202049010Y-87021500D01*
X201048998Y-87021500D01*
X201048980Y-87021501D01*
X200946203Y-87032000D01*
X200946200Y-87032001D01*
X200779668Y-87087185D01*
X200779663Y-87087187D01*
X200630342Y-87179289D01*
X200506289Y-87303342D01*
X200414187Y-87452663D01*
X200414185Y-87452668D01*
X200405128Y-87480000D01*
X200359001Y-87619203D01*
X200359001Y-87619204D01*
X200359000Y-87619204D01*
X200348500Y-87721983D01*
X200348500Y-88522001D01*
X200348501Y-88522019D01*
X200359000Y-88624796D01*
X200359001Y-88624799D01*
X200414185Y-88791331D01*
X200414187Y-88791336D01*
X200506289Y-88940657D01*
X200630345Y-89064713D01*
X200630379Y-89064740D01*
X200630395Y-89064763D01*
X200635451Y-89069819D01*
X200634586Y-89070683D01*
X200670751Y-89121765D01*
X200673884Y-89191565D01*
X200638783Y-89251978D01*
X200630379Y-89259260D01*
X200630345Y-89259286D01*
X200506286Y-89383345D01*
X200503262Y-89387170D01*
X200446239Y-89427544D01*
X200376439Y-89430679D01*
X200316025Y-89395580D01*
X200308738Y-89387170D01*
X200305713Y-89383345D01*
X200181657Y-89259289D01*
X200181656Y-89259288D01*
X200072402Y-89191900D01*
X200025679Y-89139953D01*
X200013500Y-89086362D01*
X200013500Y-85979000D01*
X205232000Y-85979000D01*
X205232000Y-99060000D01*
X208280000Y-99060000D01*
X208280000Y-85979000D01*
X205232000Y-85979000D01*
X200013500Y-85979000D01*
X200013500Y-83492079D01*
X199984659Y-83347092D01*
X199984658Y-83347091D01*
X199984658Y-83347087D01*
X199984656Y-83347082D01*
X199928087Y-83210511D01*
X199928080Y-83210498D01*
X199845952Y-83087585D01*
X199845951Y-83087584D01*
X199741416Y-82983049D01*
X199741415Y-82983048D01*
X199116819Y-82358452D01*
X197201421Y-80443052D01*
X197201414Y-80443046D01*
X197127729Y-80393812D01*
X197127729Y-80393813D01*
X197078491Y-80360913D01*
X196941917Y-80304343D01*
X196941907Y-80304340D01*
X196796920Y-80275500D01*
X196796918Y-80275500D01*
X186382917Y-80275500D01*
X186235082Y-80275500D01*
X186235080Y-80275500D01*
X186090092Y-80304340D01*
X186090082Y-80304343D01*
X185953511Y-80360912D01*
X185953498Y-80360919D01*
X185830587Y-80443046D01*
X185682045Y-80591586D01*
X185682044Y-80591588D01*
X185632812Y-80665268D01*
X185632813Y-80665269D01*
X185599921Y-80714496D01*
X185599914Y-80714508D01*
X185543342Y-80851086D01*
X185543340Y-80851092D01*
X185514500Y-80996079D01*
X185514500Y-81412500D01*
X185494815Y-81479539D01*
X185442011Y-81525294D01*
X185390500Y-81536500D01*
X184655000Y-81536500D01*
X184654991Y-81536500D01*
X184654990Y-81536501D01*
X184547549Y-81548052D01*
X184547537Y-81548054D01*
X184496027Y-81559260D01*
X184393502Y-81593383D01*
X184393496Y-81593386D01*
X184272462Y-81671171D01*
X184272451Y-81671179D01*
X184219659Y-81716923D01*
X184125433Y-81825664D01*
X184125430Y-81825668D01*
X184065664Y-81956534D01*
X184045976Y-82023582D01*
X184040949Y-82058549D01*
X184025502Y-82165990D01*
X184025500Y-82166001D01*
X184025500Y-87437091D01*
X184005815Y-87504130D01*
X183953011Y-87549885D01*
X183883853Y-87559829D01*
X183836406Y-87542632D01*
X183824333Y-87535185D01*
X183712981Y-87498287D01*
X183657797Y-87480001D01*
X183657795Y-87480000D01*
X183555015Y-87469500D01*
X183555008Y-87469500D01*
X182204992Y-87469500D01*
X182204984Y-87469500D01*
X182102204Y-87480000D01*
X182102203Y-87480001D01*
X181935664Y-87535186D01*
X181935662Y-87535187D01*
X181786348Y-87627286D01*
X181786344Y-87627289D01*
X181662289Y-87751344D01*
X181662286Y-87751348D01*
X181570187Y-87900662D01*
X181570186Y-87900664D01*
X181515001Y-88067203D01*
X181515000Y-88067204D01*
X181504500Y-88169984D01*
X181504500Y-89195015D01*
X181515000Y-89297795D01*
X181515001Y-89297796D01*
X181570186Y-89464335D01*
X181570187Y-89464337D01*
X181662286Y-89613651D01*
X181662289Y-89613655D01*
X181786344Y-89737710D01*
X181786348Y-89737713D01*
X181935662Y-89829812D01*
X181935664Y-89829813D01*
X181935666Y-89829814D01*
X182102203Y-89884999D01*
X182204992Y-89895500D01*
X182204997Y-89895500D01*
X183555003Y-89895500D01*
X183555008Y-89895500D01*
X183657797Y-89884999D01*
X183824334Y-89829814D01*
X183836402Y-89822369D01*
X183903794Y-89803929D01*
X183970458Y-89824851D01*
X184015228Y-89878492D01*
X184025500Y-89927908D01*
X184025500Y-90412091D01*
X184005815Y-90479130D01*
X183953011Y-90524885D01*
X183883853Y-90534829D01*
X183836406Y-90517632D01*
X183824333Y-90510185D01*
X183712981Y-90473287D01*
X183657797Y-90455001D01*
X183657795Y-90455000D01*
X183555015Y-90444500D01*
X183555008Y-90444500D01*
X182204992Y-90444500D01*
X182204984Y-90444500D01*
X182102204Y-90455000D01*
X182102203Y-90455001D01*
X181935664Y-90510186D01*
X181935662Y-90510187D01*
X181786348Y-90602286D01*
X181786344Y-90602289D01*
X181662289Y-90726344D01*
X181662286Y-90726348D01*
X181570187Y-90875662D01*
X181570186Y-90875664D01*
X181515001Y-91042203D01*
X181515000Y-91042204D01*
X181504500Y-91144984D01*
X181504500Y-92170015D01*
X180840500Y-92170015D01*
X180840500Y-76956288D01*
X182299500Y-76956288D01*
X182331161Y-77196785D01*
X182393947Y-77431104D01*
X182486773Y-77655205D01*
X182486776Y-77655212D01*
X182608064Y-77865289D01*
X182608066Y-77865292D01*
X182608067Y-77865293D01*
X182755733Y-78057736D01*
X182755739Y-78057743D01*
X182927256Y-78229260D01*
X182927262Y-78229265D01*
X183119711Y-78376936D01*
X183329788Y-78498224D01*
X183553900Y-78591054D01*
X183788211Y-78653838D01*
X183968586Y-78677584D01*
X184028711Y-78685500D01*
X184028712Y-78685500D01*
X184271289Y-78685500D01*
X184319388Y-78679167D01*
X184511789Y-78653838D01*
X184746100Y-78591054D01*
X184970212Y-78498224D01*
X185180289Y-78376936D01*
X185372738Y-78229265D01*
X185544265Y-78057738D01*
X185691936Y-77865289D01*
X185813224Y-77655212D01*
X185906054Y-77431100D01*
X185968838Y-77196789D01*
X186000500Y-76956288D01*
X207699500Y-76956288D01*
X207731161Y-77196785D01*
X207793947Y-77431104D01*
X207886773Y-77655205D01*
X207886776Y-77655212D01*
X208008064Y-77865289D01*
X208008066Y-77865292D01*
X208008067Y-77865293D01*
X208155733Y-78057736D01*
X208155739Y-78057743D01*
X208327256Y-78229260D01*
X208327262Y-78229265D01*
X208519711Y-78376936D01*
X208729788Y-78498224D01*
X208953900Y-78591054D01*
X209188211Y-78653838D01*
X209368586Y-78677584D01*
X209428711Y-78685500D01*
X209428712Y-78685500D01*
X209671289Y-78685500D01*
X209719388Y-78679167D01*
X209911789Y-78653838D01*
X210146100Y-78591054D01*
X210370212Y-78498224D01*
X210580289Y-78376936D01*
X210772738Y-78229265D01*
X210944265Y-78057738D01*
X211091936Y-77865289D01*
X211213224Y-77655212D01*
X211306054Y-77431100D01*
X211368838Y-77196789D01*
X211400500Y-76956288D01*
X211400500Y-76713712D01*
X211368838Y-76473211D01*
X211306054Y-76238900D01*
X211213224Y-76014788D01*
X211091936Y-75804711D01*
X210944265Y-75612262D01*
X210944260Y-75612256D01*
X210772743Y-75440739D01*
X210772736Y-75440733D01*
X210580293Y-75293067D01*
X210580292Y-75293066D01*
X210580289Y-75293064D01*
X210370212Y-75171776D01*
X210370205Y-75171773D01*
X210146104Y-75078947D01*
X209911785Y-75016161D01*
X209671289Y-74984500D01*
X209671288Y-74984500D01*
X209428712Y-74984500D01*
X209428711Y-74984500D01*
X209188214Y-75016161D01*
X208953895Y-75078947D01*
X208729794Y-75171773D01*
X208729785Y-75171777D01*
X208519706Y-75293067D01*
X208327263Y-75440733D01*
X208327256Y-75440739D01*
X208155739Y-75612256D01*
X208155733Y-75612263D01*
X208008067Y-75804706D01*
X207886777Y-76014785D01*
X207886773Y-76014794D01*
X207793947Y-76238895D01*
X207731161Y-76473214D01*
X207699500Y-76713711D01*
X207699500Y-76956288D01*
X186000500Y-76956288D01*
X186000500Y-76713712D01*
X185968838Y-76473211D01*
X185906054Y-76238900D01*
X185813224Y-76014788D01*
X185691936Y-75804711D01*
X185544265Y-75612262D01*
X185544260Y-75612256D01*
X185372743Y-75440739D01*
X185372736Y-75440733D01*
X185180293Y-75293067D01*
X185180292Y-75293066D01*
X185180289Y-75293064D01*
X184970212Y-75171776D01*
X184970205Y-75171773D01*
X184746104Y-75078947D01*
X184511785Y-75016161D01*
X184271289Y-74984500D01*
X184271288Y-74984500D01*
X184028712Y-74984500D01*
X184028711Y-74984500D01*
X183788214Y-75016161D01*
X183553895Y-75078947D01*
X183329794Y-75171773D01*
X183329785Y-75171777D01*
X183119706Y-75293067D01*
X182927263Y-75440733D01*
X182927256Y-75440739D01*
X182755739Y-75612256D01*
X182755733Y-75612263D01*
X182608067Y-75804706D01*
X182486777Y-76014785D01*
X182486773Y-76014794D01*
X182393947Y-76238895D01*
X182331161Y-76473214D01*
X182299500Y-76713711D01*
X182299500Y-76956288D01*
X180840500Y-76956288D01*
X180840500Y-73141500D01*
X180860185Y-73074461D01*
X180912989Y-73028706D01*
X180964500Y-73017500D01*
X212735500Y-73017500D01*
X212802539Y-73037185D01*
G37*
%TD.AperFunction*%
%TD*%
M02*
