%TF.GenerationSoftware,KiCad,Pcbnew,8.0.1-8.0.1-1~ubuntu22.04.1*%
%TF.CreationDate,2024-04-07T12:19:07+01:00*%
%TF.ProjectId,tps54202_inverting_breakout,74707335-3432-4303-925f-696e76657274,A*%
%TF.SameCoordinates,Original*%
%TF.FileFunction,Copper,L2,Bot*%
%TF.FilePolarity,Positive*%
%FSLAX46Y46*%
G04 Gerber Fmt 4.6, Leading zero omitted, Abs format (unit mm)*
G04 Created by KiCad (PCBNEW 8.0.1-8.0.1-1~ubuntu22.04.1) date 2024-04-07 12:19:07*
%MOMM*%
%LPD*%
G01*
G04 APERTURE LIST*
%TA.AperFunction,ComponentPad*%
%ADD10O,1.700000X1.700000*%
%TD*%
%TA.AperFunction,ComponentPad*%
%ADD11R,1.700000X1.700000*%
%TD*%
%TA.AperFunction,ComponentPad*%
%ADD12C,2.800000*%
%TD*%
%TA.AperFunction,ViaPad*%
%ADD13C,0.600000*%
%TD*%
%TA.AperFunction,Conductor*%
%ADD14C,0.200000*%
%TD*%
%TA.AperFunction,Conductor*%
%ADD15C,1.000000*%
%TD*%
G04 APERTURE END LIST*
D10*
%TO.P,J1,4,Pin_4*%
%TO.N,/VOUT*%
X192903000Y-106045000D03*
%TO.P,J1,3,Pin_3*%
%TO.N,GND*%
X195443000Y-106045000D03*
%TO.P,J1,2,Pin_2*%
X197983000Y-106045000D03*
D11*
%TO.P,J1,1,Pin_1*%
%TO.N,/VIN*%
X200523000Y-106045000D03*
%TD*%
%TO.P,J3,1,Pin_1*%
%TO.N,Net-(J3-Pin_1)*%
X207518000Y-83566000D03*
D10*
%TO.P,J3,2,Pin_2*%
%TO.N,/VIN*%
X210058000Y-83566000D03*
%TD*%
D12*
%TO.P,TP3,1,1*%
%TO.N,GND*%
X202692000Y-82550000D03*
%TD*%
D13*
%TO.N,GND*%
X201549000Y-85090000D03*
X197485000Y-88900000D03*
X197485000Y-85725000D03*
X199390000Y-80645000D03*
X188595000Y-76835000D03*
X203835000Y-76835000D03*
X209550000Y-104775000D03*
X209550000Y-107950000D03*
X182245000Y-82550000D03*
X182245000Y-85725000D03*
X182245000Y-104775000D03*
X182245000Y-101600000D03*
X182245000Y-107950000D03*
X204724000Y-97917000D03*
X204724000Y-98933000D03*
X206121000Y-88773000D03*
X206121000Y-89789000D03*
X204851000Y-92583000D03*
X204851000Y-93599000D03*
X191897000Y-83820000D03*
X191897000Y-82804000D03*
X191897000Y-89281000D03*
X191897000Y-88265000D03*
X190373000Y-95377000D03*
X190373000Y-94361000D03*
X195326000Y-93345000D03*
X194310000Y-93345000D03*
X193294000Y-93345000D03*
X192278000Y-93345000D03*
X182932500Y-97647000D03*
%TO.N,Net-(J3-Pin_1)*%
X202577000Y-99672669D03*
%TO.N,/VOUT*%
X186182000Y-91821000D03*
X199263000Y-97790000D03*
%TD*%
D14*
%TO.N,Net-(J3-Pin_1)*%
X203835000Y-87371000D02*
X207518000Y-83688000D01*
X207518000Y-83688000D02*
X207518000Y-83566000D01*
X202577000Y-99672669D02*
X203835000Y-98414669D01*
X203835000Y-98414669D02*
X203835000Y-87371000D01*
D15*
%TO.N,/VOUT*%
X186182000Y-91821000D02*
X195961000Y-91821000D01*
X195961000Y-91821000D02*
X199263000Y-95123000D01*
X199263000Y-95123000D02*
X199263000Y-97790000D01*
%TD*%
%TA.AperFunction,Conductor*%
%TO.N,GND*%
G36*
X197517075Y-105852007D02*
G01*
X197483000Y-105979174D01*
X197483000Y-106110826D01*
X197517075Y-106237993D01*
X197549988Y-106295000D01*
X195876012Y-106295000D01*
X195908925Y-106237993D01*
X195943000Y-106110826D01*
X195943000Y-105979174D01*
X195908925Y-105852007D01*
X195876012Y-105795000D01*
X197549988Y-105795000D01*
X197517075Y-105852007D01*
G37*
%TD.AperFunction*%
%TA.AperFunction,Conductor*%
G36*
X212802539Y-73037185D02*
G01*
X212848294Y-73089989D01*
X212859500Y-73141500D01*
X212859500Y-109230500D01*
X212839815Y-109297539D01*
X212787011Y-109343294D01*
X212735500Y-109354500D01*
X180964500Y-109354500D01*
X180897461Y-109334815D01*
X180851706Y-109282011D01*
X180840500Y-109230500D01*
X180840500Y-106045000D01*
X191547341Y-106045000D01*
X191567936Y-106280403D01*
X191567938Y-106280413D01*
X191629094Y-106508655D01*
X191629096Y-106508659D01*
X191629097Y-106508663D01*
X191711951Y-106686344D01*
X191728965Y-106722830D01*
X191728967Y-106722834D01*
X191837281Y-106877521D01*
X191864505Y-106916401D01*
X192031599Y-107083495D01*
X192128384Y-107151265D01*
X192225165Y-107219032D01*
X192225167Y-107219033D01*
X192225170Y-107219035D01*
X192439337Y-107318903D01*
X192667592Y-107380063D01*
X192844034Y-107395500D01*
X192902999Y-107400659D01*
X192903000Y-107400659D01*
X192903001Y-107400659D01*
X192961966Y-107395500D01*
X193138408Y-107380063D01*
X193366663Y-107318903D01*
X193580830Y-107219035D01*
X193774401Y-107083495D01*
X193941495Y-106916401D01*
X194071730Y-106730405D01*
X194126307Y-106686781D01*
X194195805Y-106679587D01*
X194258160Y-106711110D01*
X194274879Y-106730405D01*
X194404890Y-106916078D01*
X194571917Y-107083105D01*
X194765421Y-107218600D01*
X194979507Y-107318429D01*
X194979516Y-107318433D01*
X195193000Y-107375634D01*
X195193000Y-106478012D01*
X195250007Y-106510925D01*
X195377174Y-106545000D01*
X195508826Y-106545000D01*
X195635993Y-106510925D01*
X195693000Y-106478012D01*
X195693000Y-107375633D01*
X195906483Y-107318433D01*
X195906492Y-107318429D01*
X196120578Y-107218600D01*
X196314082Y-107083105D01*
X196481105Y-106916082D01*
X196611425Y-106729968D01*
X196666002Y-106686344D01*
X196735501Y-106679151D01*
X196797855Y-106710673D01*
X196814575Y-106729968D01*
X196944894Y-106916082D01*
X197111917Y-107083105D01*
X197305421Y-107218600D01*
X197519507Y-107318429D01*
X197519516Y-107318433D01*
X197733000Y-107375634D01*
X197733000Y-106478012D01*
X197790007Y-106510925D01*
X197917174Y-106545000D01*
X198048826Y-106545000D01*
X198175993Y-106510925D01*
X198233000Y-106478012D01*
X198233000Y-107375633D01*
X198446483Y-107318433D01*
X198446492Y-107318429D01*
X198660578Y-107218600D01*
X198854078Y-107083108D01*
X198976133Y-106961053D01*
X199037456Y-106927568D01*
X199107148Y-106932552D01*
X199163082Y-106974423D01*
X199179997Y-107005401D01*
X199229202Y-107137328D01*
X199229206Y-107137335D01*
X199315452Y-107252544D01*
X199315455Y-107252547D01*
X199430664Y-107338793D01*
X199430671Y-107338797D01*
X199565517Y-107389091D01*
X199565516Y-107389091D01*
X199572444Y-107389835D01*
X199625127Y-107395500D01*
X201420872Y-107395499D01*
X201480483Y-107389091D01*
X201615331Y-107338796D01*
X201730546Y-107252546D01*
X201816796Y-107137331D01*
X201867091Y-107002483D01*
X201873500Y-106942873D01*
X201873499Y-105147128D01*
X201867091Y-105087517D01*
X201866002Y-105084598D01*
X201816797Y-104952671D01*
X201816793Y-104952664D01*
X201730547Y-104837455D01*
X201730544Y-104837452D01*
X201615335Y-104751206D01*
X201615328Y-104751202D01*
X201480482Y-104700908D01*
X201480483Y-104700908D01*
X201420883Y-104694501D01*
X201420881Y-104694500D01*
X201420873Y-104694500D01*
X201420864Y-104694500D01*
X199625129Y-104694500D01*
X199625123Y-104694501D01*
X199565516Y-104700908D01*
X199430671Y-104751202D01*
X199430664Y-104751206D01*
X199315455Y-104837452D01*
X199315452Y-104837455D01*
X199229206Y-104952664D01*
X199229202Y-104952671D01*
X199179997Y-105084598D01*
X199138126Y-105140532D01*
X199072661Y-105164949D01*
X199004388Y-105150097D01*
X198976134Y-105128946D01*
X198854082Y-105006894D01*
X198660578Y-104871399D01*
X198446492Y-104771570D01*
X198446486Y-104771567D01*
X198233000Y-104714364D01*
X198233000Y-105611988D01*
X198175993Y-105579075D01*
X198048826Y-105545000D01*
X197917174Y-105545000D01*
X197790007Y-105579075D01*
X197733000Y-105611988D01*
X197733000Y-104714364D01*
X197732999Y-104714364D01*
X197519513Y-104771567D01*
X197519507Y-104771570D01*
X197305422Y-104871399D01*
X197305420Y-104871400D01*
X197111926Y-105006886D01*
X197111920Y-105006891D01*
X196944891Y-105173920D01*
X196944890Y-105173922D01*
X196814575Y-105360031D01*
X196759998Y-105403655D01*
X196690499Y-105410848D01*
X196628145Y-105379326D01*
X196611425Y-105360031D01*
X196481109Y-105173922D01*
X196481108Y-105173920D01*
X196314082Y-105006894D01*
X196120578Y-104871399D01*
X195906492Y-104771570D01*
X195906486Y-104771567D01*
X195693000Y-104714364D01*
X195693000Y-105611988D01*
X195635993Y-105579075D01*
X195508826Y-105545000D01*
X195377174Y-105545000D01*
X195250007Y-105579075D01*
X195193000Y-105611988D01*
X195193000Y-104714364D01*
X195192999Y-104714364D01*
X194979513Y-104771567D01*
X194979507Y-104771570D01*
X194765422Y-104871399D01*
X194765420Y-104871400D01*
X194571926Y-105006886D01*
X194571920Y-105006891D01*
X194404891Y-105173920D01*
X194404890Y-105173922D01*
X194274880Y-105359595D01*
X194220303Y-105403219D01*
X194150804Y-105410412D01*
X194088450Y-105378890D01*
X194071730Y-105359594D01*
X193941494Y-105173597D01*
X193774402Y-105006506D01*
X193774395Y-105006501D01*
X193580834Y-104870967D01*
X193580830Y-104870965D01*
X193580828Y-104870964D01*
X193366663Y-104771097D01*
X193366659Y-104771096D01*
X193366655Y-104771094D01*
X193138413Y-104709938D01*
X193138403Y-104709936D01*
X192903001Y-104689341D01*
X192902999Y-104689341D01*
X192667596Y-104709936D01*
X192667586Y-104709938D01*
X192439344Y-104771094D01*
X192439335Y-104771098D01*
X192225171Y-104870964D01*
X192225169Y-104870965D01*
X192031597Y-105006505D01*
X191864505Y-105173597D01*
X191728965Y-105367169D01*
X191728964Y-105367171D01*
X191629098Y-105581335D01*
X191629094Y-105581344D01*
X191567938Y-105809586D01*
X191567936Y-105809596D01*
X191547341Y-106044999D01*
X191547341Y-106045000D01*
X180840500Y-106045000D01*
X180840500Y-99672672D01*
X201771435Y-99672672D01*
X201791630Y-99851918D01*
X201791631Y-99851923D01*
X201851211Y-100022192D01*
X201947184Y-100174931D01*
X202074738Y-100302485D01*
X202227478Y-100398458D01*
X202397745Y-100458037D01*
X202397750Y-100458038D01*
X202576996Y-100478234D01*
X202577000Y-100478234D01*
X202577004Y-100478234D01*
X202756249Y-100458038D01*
X202756252Y-100458037D01*
X202756255Y-100458037D01*
X202926522Y-100398458D01*
X203079262Y-100302485D01*
X203206816Y-100174931D01*
X203302789Y-100022191D01*
X203362368Y-99851924D01*
X203372161Y-99764998D01*
X203399226Y-99700587D01*
X203407690Y-99691212D01*
X204315520Y-98783385D01*
X204394577Y-98646453D01*
X204435501Y-98493726D01*
X204435501Y-98335611D01*
X204435501Y-98328016D01*
X204435500Y-98327998D01*
X204435500Y-87671097D01*
X204455185Y-87604058D01*
X204471819Y-87583416D01*
X207102417Y-84952818D01*
X207163740Y-84919333D01*
X207190098Y-84916499D01*
X208415871Y-84916499D01*
X208415872Y-84916499D01*
X208475483Y-84910091D01*
X208610331Y-84859796D01*
X208725546Y-84773546D01*
X208811796Y-84658331D01*
X208860810Y-84526916D01*
X208902681Y-84470984D01*
X208968145Y-84446566D01*
X209036418Y-84461417D01*
X209064673Y-84482569D01*
X209186599Y-84604495D01*
X209283384Y-84672265D01*
X209380165Y-84740032D01*
X209380167Y-84740033D01*
X209380170Y-84740035D01*
X209594337Y-84839903D01*
X209822592Y-84901063D01*
X210010918Y-84917539D01*
X210057999Y-84921659D01*
X210058000Y-84921659D01*
X210058001Y-84921659D01*
X210097234Y-84918226D01*
X210293408Y-84901063D01*
X210521663Y-84839903D01*
X210735830Y-84740035D01*
X210929401Y-84604495D01*
X211096495Y-84437401D01*
X211232035Y-84243830D01*
X211331903Y-84029663D01*
X211393063Y-83801408D01*
X211413659Y-83566000D01*
X211393063Y-83330592D01*
X211331903Y-83102337D01*
X211232035Y-82888171D01*
X211185070Y-82821097D01*
X211096494Y-82694597D01*
X210929402Y-82527506D01*
X210929395Y-82527501D01*
X210735834Y-82391967D01*
X210735830Y-82391965D01*
X210735828Y-82391964D01*
X210521663Y-82292097D01*
X210521659Y-82292096D01*
X210521655Y-82292094D01*
X210293413Y-82230938D01*
X210293403Y-82230936D01*
X210058001Y-82210341D01*
X210057999Y-82210341D01*
X209822596Y-82230936D01*
X209822586Y-82230938D01*
X209594344Y-82292094D01*
X209594335Y-82292098D01*
X209380171Y-82391964D01*
X209380169Y-82391965D01*
X209186600Y-82527503D01*
X209064673Y-82649430D01*
X209003350Y-82682914D01*
X208933658Y-82677930D01*
X208877725Y-82636058D01*
X208860810Y-82605081D01*
X208811797Y-82473671D01*
X208811793Y-82473664D01*
X208725547Y-82358455D01*
X208725544Y-82358452D01*
X208610335Y-82272206D01*
X208610328Y-82272202D01*
X208475482Y-82221908D01*
X208475483Y-82221908D01*
X208415883Y-82215501D01*
X208415881Y-82215500D01*
X208415873Y-82215500D01*
X208415864Y-82215500D01*
X206620129Y-82215500D01*
X206620123Y-82215501D01*
X206560516Y-82221908D01*
X206425671Y-82272202D01*
X206425664Y-82272206D01*
X206310455Y-82358452D01*
X206310452Y-82358455D01*
X206224206Y-82473664D01*
X206224202Y-82473671D01*
X206173908Y-82608517D01*
X206167501Y-82668116D01*
X206167500Y-82668135D01*
X206167500Y-84137901D01*
X206147815Y-84204940D01*
X206131181Y-84225582D01*
X203466286Y-86890478D01*
X203354481Y-87002282D01*
X203354479Y-87002285D01*
X203304361Y-87089094D01*
X203304359Y-87089096D01*
X203275425Y-87139209D01*
X203275424Y-87139210D01*
X203275423Y-87139215D01*
X203234499Y-87291943D01*
X203234499Y-87291945D01*
X203234499Y-87460046D01*
X203234500Y-87460059D01*
X203234500Y-98114571D01*
X203214815Y-98181610D01*
X203198181Y-98202252D01*
X202558465Y-98841967D01*
X202497142Y-98875452D01*
X202484668Y-98877506D01*
X202397750Y-98887299D01*
X202227478Y-98946879D01*
X202074737Y-99042853D01*
X201947184Y-99170406D01*
X201851211Y-99323145D01*
X201791631Y-99493414D01*
X201791630Y-99493419D01*
X201771435Y-99672665D01*
X201771435Y-99672672D01*
X180840500Y-99672672D01*
X180840500Y-91919543D01*
X185181499Y-91919543D01*
X185219947Y-92112829D01*
X185219950Y-92112839D01*
X185295364Y-92294907D01*
X185295371Y-92294920D01*
X185404860Y-92458781D01*
X185404863Y-92458785D01*
X185544214Y-92598136D01*
X185544218Y-92598139D01*
X185708079Y-92707628D01*
X185708092Y-92707635D01*
X185890160Y-92783049D01*
X185890165Y-92783051D01*
X185890169Y-92783051D01*
X185890170Y-92783052D01*
X186083456Y-92821500D01*
X186083459Y-92821500D01*
X195495218Y-92821500D01*
X195562257Y-92841185D01*
X195582899Y-92857819D01*
X198226181Y-95501101D01*
X198259666Y-95562424D01*
X198262500Y-95588782D01*
X198262500Y-97888541D01*
X198262500Y-97888543D01*
X198262499Y-97888543D01*
X198300947Y-98081829D01*
X198300950Y-98081839D01*
X198376364Y-98263907D01*
X198376371Y-98263920D01*
X198485860Y-98427781D01*
X198485863Y-98427785D01*
X198625214Y-98567136D01*
X198625218Y-98567139D01*
X198789079Y-98676628D01*
X198789092Y-98676635D01*
X198971160Y-98752049D01*
X198971165Y-98752051D01*
X198971169Y-98752051D01*
X198971170Y-98752052D01*
X199164456Y-98790500D01*
X199164459Y-98790500D01*
X199361543Y-98790500D01*
X199491582Y-98764632D01*
X199554835Y-98752051D01*
X199736914Y-98676632D01*
X199900782Y-98567139D01*
X200040139Y-98427782D01*
X200149632Y-98263914D01*
X200225051Y-98081835D01*
X200263500Y-97888541D01*
X200263500Y-95024459D01*
X200263500Y-95024456D01*
X200225052Y-94831170D01*
X200225051Y-94831169D01*
X200225051Y-94831165D01*
X200225049Y-94831160D01*
X200149635Y-94649092D01*
X200149628Y-94649079D01*
X200040139Y-94485218D01*
X200040136Y-94485214D01*
X199897686Y-94342764D01*
X199897655Y-94342735D01*
X196742479Y-91187559D01*
X196742459Y-91187537D01*
X196598785Y-91043863D01*
X196598781Y-91043860D01*
X196434920Y-90934371D01*
X196434911Y-90934366D01*
X196362315Y-90904296D01*
X196306165Y-90881038D01*
X196252836Y-90858949D01*
X196252832Y-90858948D01*
X196252828Y-90858946D01*
X196156188Y-90839724D01*
X196059544Y-90820500D01*
X196059541Y-90820500D01*
X186083459Y-90820500D01*
X186083457Y-90820500D01*
X185890170Y-90858947D01*
X185890160Y-90858950D01*
X185708092Y-90934364D01*
X185708079Y-90934371D01*
X185544218Y-91043860D01*
X185544214Y-91043863D01*
X185404863Y-91183214D01*
X185404860Y-91183218D01*
X185295371Y-91347079D01*
X185295364Y-91347092D01*
X185219950Y-91529160D01*
X185219947Y-91529170D01*
X185181500Y-91722456D01*
X185181500Y-91722459D01*
X185181500Y-91919541D01*
X185181500Y-91919543D01*
X185181499Y-91919543D01*
X180840500Y-91919543D01*
X180840500Y-82550001D01*
X200787147Y-82550001D01*
X200806536Y-82821090D01*
X200806537Y-82821097D01*
X200864305Y-83086654D01*
X200959285Y-83341306D01*
X200959287Y-83341310D01*
X201089532Y-83579835D01*
X201089537Y-83579843D01*
X201183321Y-83705123D01*
X201183322Y-83705124D01*
X201976153Y-82912293D01*
X201983049Y-82928942D01*
X202070599Y-83059970D01*
X202182030Y-83171401D01*
X202313058Y-83258951D01*
X202329705Y-83265846D01*
X201536874Y-84058676D01*
X201662163Y-84152466D01*
X201662164Y-84152467D01*
X201900689Y-84282712D01*
X201900693Y-84282714D01*
X202155345Y-84377694D01*
X202420902Y-84435462D01*
X202420909Y-84435463D01*
X202691999Y-84454853D01*
X202692001Y-84454853D01*
X202963090Y-84435463D01*
X202963097Y-84435462D01*
X203228654Y-84377694D01*
X203483306Y-84282714D01*
X203483310Y-84282712D01*
X203721844Y-84152462D01*
X203847123Y-84058677D01*
X203847124Y-84058676D01*
X203054294Y-83265846D01*
X203070942Y-83258951D01*
X203201970Y-83171401D01*
X203313401Y-83059970D01*
X203400951Y-82928942D01*
X203407846Y-82912294D01*
X204200676Y-83705124D01*
X204200677Y-83705123D01*
X204294462Y-83579844D01*
X204424712Y-83341310D01*
X204424714Y-83341306D01*
X204519694Y-83086654D01*
X204577462Y-82821097D01*
X204577463Y-82821090D01*
X204596853Y-82550001D01*
X204596853Y-82549998D01*
X204577463Y-82278909D01*
X204577462Y-82278902D01*
X204519694Y-82013345D01*
X204424714Y-81758693D01*
X204424712Y-81758689D01*
X204294467Y-81520164D01*
X204294466Y-81520163D01*
X204200676Y-81394874D01*
X203407846Y-82187704D01*
X203400951Y-82171058D01*
X203313401Y-82040030D01*
X203201970Y-81928599D01*
X203070942Y-81841049D01*
X203054294Y-81834153D01*
X203847124Y-81041322D01*
X203847123Y-81041321D01*
X203721843Y-80947537D01*
X203721835Y-80947532D01*
X203483310Y-80817287D01*
X203483306Y-80817285D01*
X203228654Y-80722305D01*
X202963097Y-80664537D01*
X202963090Y-80664536D01*
X202692001Y-80645147D01*
X202691999Y-80645147D01*
X202420909Y-80664536D01*
X202420902Y-80664537D01*
X202155345Y-80722305D01*
X201900693Y-80817285D01*
X201900689Y-80817287D01*
X201662164Y-80947532D01*
X201662156Y-80947537D01*
X201536875Y-81041321D01*
X201536874Y-81041322D01*
X202329705Y-81834153D01*
X202313058Y-81841049D01*
X202182030Y-81928599D01*
X202070599Y-82040030D01*
X201983049Y-82171058D01*
X201976153Y-82187705D01*
X201183322Y-81394874D01*
X201183321Y-81394875D01*
X201089537Y-81520156D01*
X201089532Y-81520164D01*
X200959287Y-81758689D01*
X200959285Y-81758693D01*
X200864305Y-82013345D01*
X200806537Y-82278902D01*
X200806536Y-82278909D01*
X200787147Y-82549998D01*
X200787147Y-82550001D01*
X180840500Y-82550001D01*
X180840500Y-76956288D01*
X182299500Y-76956288D01*
X182331161Y-77196785D01*
X182393947Y-77431104D01*
X182486773Y-77655205D01*
X182486776Y-77655212D01*
X182608064Y-77865289D01*
X182608066Y-77865292D01*
X182608067Y-77865293D01*
X182755733Y-78057736D01*
X182755739Y-78057743D01*
X182927256Y-78229260D01*
X182927262Y-78229265D01*
X183119711Y-78376936D01*
X183329788Y-78498224D01*
X183553900Y-78591054D01*
X183788211Y-78653838D01*
X183968586Y-78677584D01*
X184028711Y-78685500D01*
X184028712Y-78685500D01*
X184271289Y-78685500D01*
X184319388Y-78679167D01*
X184511789Y-78653838D01*
X184746100Y-78591054D01*
X184970212Y-78498224D01*
X185180289Y-78376936D01*
X185372738Y-78229265D01*
X185544265Y-78057738D01*
X185691936Y-77865289D01*
X185813224Y-77655212D01*
X185906054Y-77431100D01*
X185968838Y-77196789D01*
X186000500Y-76956288D01*
X207699500Y-76956288D01*
X207731161Y-77196785D01*
X207793947Y-77431104D01*
X207886773Y-77655205D01*
X207886776Y-77655212D01*
X208008064Y-77865289D01*
X208008066Y-77865292D01*
X208008067Y-77865293D01*
X208155733Y-78057736D01*
X208155739Y-78057743D01*
X208327256Y-78229260D01*
X208327262Y-78229265D01*
X208519711Y-78376936D01*
X208729788Y-78498224D01*
X208953900Y-78591054D01*
X209188211Y-78653838D01*
X209368586Y-78677584D01*
X209428711Y-78685500D01*
X209428712Y-78685500D01*
X209671289Y-78685500D01*
X209719388Y-78679167D01*
X209911789Y-78653838D01*
X210146100Y-78591054D01*
X210370212Y-78498224D01*
X210580289Y-78376936D01*
X210772738Y-78229265D01*
X210944265Y-78057738D01*
X211091936Y-77865289D01*
X211213224Y-77655212D01*
X211306054Y-77431100D01*
X211368838Y-77196789D01*
X211400500Y-76956288D01*
X211400500Y-76713712D01*
X211368838Y-76473211D01*
X211306054Y-76238900D01*
X211213224Y-76014788D01*
X211091936Y-75804711D01*
X210944265Y-75612262D01*
X210944260Y-75612256D01*
X210772743Y-75440739D01*
X210772736Y-75440733D01*
X210580293Y-75293067D01*
X210580292Y-75293066D01*
X210580289Y-75293064D01*
X210370212Y-75171776D01*
X210370205Y-75171773D01*
X210146104Y-75078947D01*
X209911785Y-75016161D01*
X209671289Y-74984500D01*
X209671288Y-74984500D01*
X209428712Y-74984500D01*
X209428711Y-74984500D01*
X209188214Y-75016161D01*
X208953895Y-75078947D01*
X208729794Y-75171773D01*
X208729785Y-75171777D01*
X208519706Y-75293067D01*
X208327263Y-75440733D01*
X208327256Y-75440739D01*
X208155739Y-75612256D01*
X208155733Y-75612263D01*
X208008067Y-75804706D01*
X207886777Y-76014785D01*
X207886773Y-76014794D01*
X207793947Y-76238895D01*
X207731161Y-76473214D01*
X207699500Y-76713711D01*
X207699500Y-76956288D01*
X186000500Y-76956288D01*
X186000500Y-76713712D01*
X185968838Y-76473211D01*
X185906054Y-76238900D01*
X185813224Y-76014788D01*
X185691936Y-75804711D01*
X185544265Y-75612262D01*
X185544260Y-75612256D01*
X185372743Y-75440739D01*
X185372736Y-75440733D01*
X185180293Y-75293067D01*
X185180292Y-75293066D01*
X185180289Y-75293064D01*
X184970212Y-75171776D01*
X184970205Y-75171773D01*
X184746104Y-75078947D01*
X184511785Y-75016161D01*
X184271289Y-74984500D01*
X184271288Y-74984500D01*
X184028712Y-74984500D01*
X184028711Y-74984500D01*
X183788214Y-75016161D01*
X183553895Y-75078947D01*
X183329794Y-75171773D01*
X183329785Y-75171777D01*
X183119706Y-75293067D01*
X182927263Y-75440733D01*
X182927256Y-75440739D01*
X182755739Y-75612256D01*
X182755733Y-75612263D01*
X182608067Y-75804706D01*
X182486777Y-76014785D01*
X182486773Y-76014794D01*
X182393947Y-76238895D01*
X182331161Y-76473214D01*
X182299500Y-76713711D01*
X182299500Y-76956288D01*
X180840500Y-76956288D01*
X180840500Y-73141500D01*
X180860185Y-73074461D01*
X180912989Y-73028706D01*
X180964500Y-73017500D01*
X212735500Y-73017500D01*
X212802539Y-73037185D01*
G37*
%TD.AperFunction*%
%TD*%
M02*
