%TF.GenerationSoftware,KiCad,Pcbnew,8.0.1-8.0.1-1~ubuntu22.04.1*%
%TF.CreationDate,2024-04-28T16:40:34+01:00*%
%TF.ProjectId,tps54202_inverting_breakout,74707335-3432-4303-925f-696e76657274,A*%
%TF.SameCoordinates,Original*%
%TF.FileFunction,Legend,Top*%
%TF.FilePolarity,Positive*%
%FSLAX46Y46*%
G04 Gerber Fmt 4.6, Leading zero omitted, Abs format (unit mm)*
G04 Created by KiCad (PCBNEW 8.0.1-8.0.1-1~ubuntu22.04.1) date 2024-04-28 16:40:34*
%MOMM*%
%LPD*%
G01*
G04 APERTURE LIST*
%ADD10C,0.200000*%
%ADD11C,0.150000*%
%ADD12C,0.120000*%
G04 APERTURE END LIST*
D10*
X203663714Y-105322742D02*
X204063714Y-106522742D01*
X204063714Y-106522742D02*
X204463714Y-105322742D01*
X204863714Y-106522742D02*
X204863714Y-105322742D01*
X205435143Y-106522742D02*
X205435143Y-105322742D01*
X205435143Y-105322742D02*
X206120857Y-106522742D01*
X206120857Y-106522742D02*
X206120857Y-105322742D01*
X186099714Y-105322742D02*
X186499714Y-106522742D01*
X186499714Y-106522742D02*
X186899714Y-105322742D01*
X187528285Y-105322742D02*
X187756857Y-105322742D01*
X187756857Y-105322742D02*
X187871142Y-105379885D01*
X187871142Y-105379885D02*
X187985428Y-105494171D01*
X187985428Y-105494171D02*
X188042571Y-105722742D01*
X188042571Y-105722742D02*
X188042571Y-106122742D01*
X188042571Y-106122742D02*
X187985428Y-106351314D01*
X187985428Y-106351314D02*
X187871142Y-106465600D01*
X187871142Y-106465600D02*
X187756857Y-106522742D01*
X187756857Y-106522742D02*
X187528285Y-106522742D01*
X187528285Y-106522742D02*
X187414000Y-106465600D01*
X187414000Y-106465600D02*
X187299714Y-106351314D01*
X187299714Y-106351314D02*
X187242571Y-106122742D01*
X187242571Y-106122742D02*
X187242571Y-105722742D01*
X187242571Y-105722742D02*
X187299714Y-105494171D01*
X187299714Y-105494171D02*
X187414000Y-105379885D01*
X187414000Y-105379885D02*
X187528285Y-105322742D01*
X188556857Y-105322742D02*
X188556857Y-106294171D01*
X188556857Y-106294171D02*
X188614000Y-106408457D01*
X188614000Y-106408457D02*
X188671143Y-106465600D01*
X188671143Y-106465600D02*
X188785428Y-106522742D01*
X188785428Y-106522742D02*
X189014000Y-106522742D01*
X189014000Y-106522742D02*
X189128285Y-106465600D01*
X189128285Y-106465600D02*
X189185428Y-106408457D01*
X189185428Y-106408457D02*
X189242571Y-106294171D01*
X189242571Y-106294171D02*
X189242571Y-105322742D01*
X189642571Y-105322742D02*
X190328286Y-105322742D01*
X189985428Y-106522742D02*
X189985428Y-105322742D01*
D11*
X198882095Y-85306819D02*
X198882095Y-86116342D01*
X198882095Y-86116342D02*
X198929714Y-86211580D01*
X198929714Y-86211580D02*
X198977333Y-86259200D01*
X198977333Y-86259200D02*
X199072571Y-86306819D01*
X199072571Y-86306819D02*
X199263047Y-86306819D01*
X199263047Y-86306819D02*
X199358285Y-86259200D01*
X199358285Y-86259200D02*
X199405904Y-86211580D01*
X199405904Y-86211580D02*
X199453523Y-86116342D01*
X199453523Y-86116342D02*
X199453523Y-85306819D01*
X200453523Y-86306819D02*
X199882095Y-86306819D01*
X200167809Y-86306819D02*
X200167809Y-85306819D01*
X200167809Y-85306819D02*
X200072571Y-85449676D01*
X200072571Y-85449676D02*
X199977333Y-85544914D01*
X199977333Y-85544914D02*
X199882095Y-85592533D01*
D12*
%TO.C,C6*%
X203954748Y-92356000D02*
X204477252Y-92356000D01*
X203954748Y-93826000D02*
X204477252Y-93826000D01*
%TO.C,C3*%
X189095748Y-92229000D02*
X189618252Y-92229000D01*
X189095748Y-93699000D02*
X189618252Y-93699000D01*
%TO.C,C10*%
X189095748Y-94515000D02*
X189618252Y-94515000D01*
X189095748Y-95985000D02*
X189618252Y-95985000D01*
%TO.C,C5*%
X203954748Y-90070000D02*
X204477252Y-90070000D01*
X203954748Y-91540000D02*
X204477252Y-91540000D01*
%TO.C,J1*%
X191573000Y-104715000D02*
X191573000Y-107375000D01*
X199253000Y-104715000D02*
X191573000Y-104715000D01*
X199253000Y-104715000D02*
X199253000Y-107375000D01*
X199253000Y-107375000D02*
X191573000Y-107375000D01*
X200523000Y-104715000D02*
X201853000Y-104715000D01*
X201853000Y-104715000D02*
X201853000Y-106045000D01*
%TO.C,U1*%
X195351000Y-87110500D02*
X195351000Y-86310500D01*
X195351000Y-87110500D02*
X195351000Y-87910500D01*
X198471000Y-87110500D02*
X198471000Y-86310500D01*
X198471000Y-87110500D02*
X198471000Y-87910500D01*
X195401000Y-88410500D02*
X195071000Y-88650500D01*
X195071000Y-88170500D01*
X195401000Y-88410500D01*
G36*
X195401000Y-88410500D02*
G01*
X195071000Y-88650500D01*
X195071000Y-88170500D01*
X195401000Y-88410500D01*
G37*
%TO.C,R2*%
X196569064Y-84039000D02*
X196114936Y-84039000D01*
X196569064Y-82569000D02*
X196114936Y-82569000D01*
%TO.C,C4*%
X203954748Y-87784000D02*
X204477252Y-87784000D01*
X203954748Y-89254000D02*
X204477252Y-89254000D01*
%TO.C,R3*%
X192686000Y-87222064D02*
X192686000Y-86767936D01*
X194156000Y-87222064D02*
X194156000Y-86767936D01*
%TO.C,C1*%
X189074248Y-87657000D02*
X189596752Y-87657000D01*
X189074248Y-89127000D02*
X189596752Y-89127000D01*
%TO.C,C12*%
X189095748Y-99087000D02*
X189618252Y-99087000D01*
X189095748Y-100557000D02*
X189618252Y-100557000D01*
%TO.C,L1*%
X192777000Y-96661000D02*
X192777000Y-99161000D01*
X201177000Y-99161000D02*
X201177000Y-96661000D01*
%TO.C,C11*%
X189095748Y-96801000D02*
X189618252Y-96801000D01*
X189095748Y-98271000D02*
X189618252Y-98271000D01*
%TO.C,R1*%
X196130936Y-80537000D02*
X196585064Y-80537000D01*
X196130936Y-82007000D02*
X196585064Y-82007000D01*
%TO.C,C2*%
X189074248Y-89943000D02*
X189596752Y-89943000D01*
X189074248Y-91413000D02*
X189596752Y-91413000D01*
%TD*%
M02*
